<mxfile host="app.diagrams.net" agent="Mozilla/5.0 (X11; Linux x86_64; rv:109.0) Gecko/20100101 Firefox/115.0" version="24.7.12">
  <diagram name="Page-1" id="GIOiO_XL50JcRZLEiqmb">
    <mxGraphModel dx="6563" dy="3316" grid="1" gridSize="3" guides="0" tooltips="1" connect="0" arrows="0" fold="1" page="1" pageScale="1" pageWidth="827" pageHeight="1169" background="#FFFFFF" math="0" shadow="0">
      <root>
        <mxCell id="0" />
        <mxCell id="1" parent="0" />
        <mxCell id="Fz1fnsxvgLmSLC5UEzrB-5" value="" style="rounded=0;whiteSpace=wrap;html=1;" vertex="1" parent="1">
          <mxGeometry x="-813" y="156" width="4116" height="2118" as="geometry" />
        </mxCell>
        <mxCell id="k1cbnF_5yYTtlvTHfuMY-3" value="" style="rounded=0;whiteSpace=wrap;html=1;fillColor=#BABABA;strokeWidth=2;strokeColor=#000000;opacity=20;dashed=1;" parent="1" vertex="1">
          <mxGeometry x="-231" y="933" width="2961" height="1218" as="geometry" />
        </mxCell>
        <mxCell id="k1cbnF_5yYTtlvTHfuMY-44" value="&amp;nbsp;" style="shape=ext;double=1;rounded=0;whiteSpace=wrap;html=1;fillColor=none;" parent="1" vertex="1">
          <mxGeometry x="-75" y="960" width="2772" height="1164" as="geometry" />
        </mxCell>
        <mxCell id="GuCMF0NOM9EzWncVumZ_-5" value="" style="endArrow=none;html=1;rounded=0;strokeWidth=2;strokeColor=#FFCC99;" parent="1" edge="1">
          <mxGeometry width="50" height="50" relative="1" as="geometry">
            <mxPoint x="834" y="1650" as="sourcePoint" />
            <mxPoint x="834" y="1326" as="targetPoint" />
          </mxGeometry>
        </mxCell>
        <mxCell id="k1cbnF_5yYTtlvTHfuMY-45" value="&amp;nbsp;" style="shape=ext;double=1;rounded=0;whiteSpace=wrap;html=1;fillColor=none;opacity=50;strokeColor=#000000;gradientColor=none;strokeWidth=6;" parent="1" vertex="1">
          <mxGeometry x="-738" y="216" width="3975" height="1995" as="geometry" />
        </mxCell>
        <mxCell id="HHthe8FDpFu81GJ2ntWf-72" value="&amp;nbsp;" style="rounded=0;whiteSpace=wrap;html=1;dashed=1;strokeWidth=2;fillColor=#BABABA;fillStyle=solid;opacity=20;" parent="1" vertex="1">
          <mxGeometry x="572" y="630" width="615" height="234" as="geometry" />
        </mxCell>
        <mxCell id="Nq3vy76Jur3wy4Glu-vh-1" value="" style="rounded=0;whiteSpace=wrap;html=1;fillColor=none;strokeColor=#FF9999;strokeWidth=2;fontColor=#000000;" parent="1" vertex="1">
          <mxGeometry x="180" y="1459" width="200" height="140" as="geometry" />
        </mxCell>
        <mxCell id="Nq3vy76Jur3wy4Glu-vh-2" value="&lt;font style=&quot;font-size: 8px;&quot;&gt;instruction(31:0)&lt;br&gt;&lt;/font&gt;" style="text;html=1;strokeColor=none;fillColor=none;align=center;verticalAlign=middle;whiteSpace=wrap;rounded=0;fontColor=#000000;" parent="1" vertex="1">
          <mxGeometry x="181" y="1489" width="60" height="20" as="geometry" />
        </mxCell>
        <mxCell id="Nq3vy76Jur3wy4Glu-vh-3" value="DECODER" style="text;html=1;strokeColor=none;fillColor=none;align=center;verticalAlign=middle;whiteSpace=wrap;rounded=0;fontColor=#000000;" parent="1" vertex="1">
          <mxGeometry x="180" y="1464" width="200" height="20" as="geometry" />
        </mxCell>
        <mxCell id="Nq3vy76Jur3wy4Glu-vh-4" value="&lt;div style=&quot;font-size: 8px;&quot; align=&quot;right&quot;&gt;&lt;div style=&quot;font-size: 8px;&quot; align=&quot;right&quot;&gt;&lt;font style=&quot;font-size: 8px;&quot;&gt;imm(31:0)&lt;/font&gt;&lt;/div&gt;&lt;font style=&quot;font-size: 8px;&quot;&gt;&lt;/font&gt;&lt;/div&gt;&lt;div style=&quot;font-size: 8px;&quot; align=&quot;right&quot;&gt;&lt;font style=&quot;font-size: 8px;&quot;&gt;rd_addr(4:0)&lt;/font&gt;&lt;/div&gt;&lt;div style=&quot;font-size: 8px;&quot; align=&quot;right&quot;&gt;&lt;font style=&quot;font-size: 8px;&quot;&gt;rs1_addr(4:0)&lt;/font&gt;&lt;/div&gt;&lt;div style=&quot;font-size: 8px;&quot; align=&quot;right&quot;&gt;&lt;font style=&quot;font-size: 8px;&quot;&gt;rs2_addr(4:0)&lt;/font&gt;&lt;/div&gt;&lt;div style=&quot;font-size: 8px;&quot; align=&quot;right&quot;&gt;&lt;div style=&quot;font-size: 8px;&quot; align=&quot;right&quot;&gt;&lt;font style=&quot;font-size: 8px;&quot;&gt;opcode(6:0)&lt;/font&gt;&lt;/div&gt;&lt;div style=&quot;font-size: 8px;&quot; align=&quot;right&quot;&gt;&lt;font style=&quot;font-size: 8px;&quot;&gt;func3(2:0)&lt;/font&gt;&lt;/div&gt;&lt;font style=&quot;font-size: 8px;&quot;&gt;func7(6:0)&lt;/font&gt;&lt;font style=&quot;font-size: 8px;&quot;&gt;&lt;/font&gt;&lt;/div&gt;" style="text;html=1;strokeColor=none;fillColor=none;align=right;verticalAlign=middle;whiteSpace=wrap;rounded=0;fontColor=#000000;" parent="1" vertex="1">
          <mxGeometry x="329" y="1489" width="50" height="70" as="geometry" />
        </mxCell>
        <mxCell id="Nq3vy76Jur3wy4Glu-vh-5" value="" style="rounded=0;whiteSpace=wrap;html=1;fillColor=none;strokeColor=#ffcc99;strokeWidth=2;fontColor=#000000;" parent="1" vertex="1">
          <mxGeometry x="580" y="1619" width="200" height="140" as="geometry" />
        </mxCell>
        <mxCell id="Nq3vy76Jur3wy4Glu-vh-6" value="&lt;div style=&quot;font-size: 8px;&quot; align=&quot;left&quot;&gt;&lt;font style=&quot;font-size: 8px;&quot;&gt;opcode(6:0)&lt;/font&gt;&lt;/div&gt;&lt;div style=&quot;font-size: 8px;&quot; align=&quot;left&quot;&gt;&lt;font style=&quot;font-size: 8px;&quot;&gt;func3(2:0)&lt;/font&gt;&lt;/div&gt;&lt;div style=&quot;font-size: 8px;&quot; align=&quot;left&quot;&gt;&lt;font style=&quot;font-size: 8px;&quot;&gt;func7(6:0)&lt;/font&gt;&lt;/div&gt;&lt;div style=&quot;font-size: 8px;&quot; align=&quot;left&quot;&gt;&lt;font style=&quot;font-size: 8px;&quot;&gt;branch_result&lt;br&gt;&lt;/font&gt;&lt;/div&gt;" style="text;html=1;strokeColor=none;fillColor=none;align=left;verticalAlign=middle;whiteSpace=wrap;rounded=0;fontColor=#000000;" parent="1" vertex="1">
          <mxGeometry x="581" y="1649" width="55" height="43" as="geometry" />
        </mxCell>
        <mxCell id="Nq3vy76Jur3wy4Glu-vh-7" value="CONTROL" style="text;html=1;strokeColor=none;fillColor=none;align=center;verticalAlign=middle;whiteSpace=wrap;rounded=0;fontColor=#000000;" parent="1" vertex="1">
          <mxGeometry x="580" y="1624" width="200" height="20" as="geometry" />
        </mxCell>
        <mxCell id="Nq3vy76Jur3wy4Glu-vh-8" value="&lt;div style=&quot;font-size: 8px;&quot; align=&quot;right&quot;&gt;&lt;font style=&quot;font-size: 8px;&quot;&gt;pc_ctrl(1:0)&lt;/font&gt;&lt;/div&gt;&lt;div style=&quot;font-size: 8px;&quot; align=&quot;right&quot;&gt;&lt;font style=&quot;font-size: 8px;&quot;&gt;inst_addr_ctrl&lt;br&gt;&lt;/font&gt;&lt;/div&gt;&lt;div style=&quot;font-size: 8px;&quot; align=&quot;right&quot;&gt;&lt;font style=&quot;font-size: 8px;&quot;&gt;alu_mux_1_ctrl&lt;/font&gt;&lt;/div&gt;&lt;div style=&quot;font-size: 8px;&quot; align=&quot;right&quot;&gt;&lt;div style=&quot;font-size: 8px;&quot; align=&quot;right&quot;&gt;&lt;div style=&quot;font-size: 8px;&quot; align=&quot;right&quot;&gt;&lt;font style=&quot;font-size: 8px;&quot;&gt;alu_control(4:0)&lt;/font&gt;&lt;font style=&quot;font-size: 8px;&quot;&gt;&lt;br&gt;&lt;/font&gt;&lt;/div&gt;&lt;/div&gt;&lt;font style=&quot;font-size: 8px;&quot;&gt;&lt;/font&gt;&lt;/div&gt;&lt;div style=&quot;font-size: 8px;&quot; align=&quot;right&quot;&gt;&lt;font style=&quot;font-size: 8px;&quot;&gt;alu_mux_2_ctrl&lt;/font&gt;&lt;/div&gt;&lt;div style=&quot;font-size: 8px;&quot; align=&quot;right&quot;&gt;&lt;div style=&quot;font-size: 8px;&quot; align=&quot;right&quot;&gt;&lt;font style=&quot;font-size: 8px;&quot;&gt;reg_file_inst_ctrl(1:0)&lt;/font&gt;&lt;/div&gt;&lt;div style=&quot;font-size: 8px;&quot; align=&quot;right&quot;&gt;&lt;font style=&quot;font-size: 8px;&quot;&gt;ram_management_ctrl(3:0)&lt;br&gt;&lt;/font&gt;&lt;/div&gt;&lt;div style=&quot;font-size: 8px;&quot; align=&quot;right&quot;&gt;&lt;div style=&quot;font-size: 8px;&quot; align=&quot;right&quot;&gt;&lt;font style=&quot;font-size: 8px;&quot;&gt;branch_ctrl(2:0)&lt;/font&gt;&lt;/div&gt;&lt;/div&gt;&lt;/div&gt;" style="text;html=1;strokeColor=none;fillColor=none;align=right;verticalAlign=middle;whiteSpace=wrap;rounded=0;fontColor=#000000;" parent="1" vertex="1">
          <mxGeometry x="678" y="1644" width="101" height="75" as="geometry" />
        </mxCell>
        <mxCell id="Nq3vy76Jur3wy4Glu-vh-9" value="" style="rounded=0;whiteSpace=wrap;html=1;fillColor=none;strokeColor=#ffff66;strokeWidth=2;fontColor=#000000;" parent="1" vertex="1">
          <mxGeometry x="1300" y="1499" width="200" height="140" as="geometry" />
        </mxCell>
        <mxCell id="Nq3vy76Jur3wy4Glu-vh-10" value="&lt;div style=&quot;font-size: 8px;&quot; align=&quot;left&quot;&gt;&lt;font style=&quot;font-size: 8px;&quot;&gt;clk&lt;/font&gt;&lt;/div&gt;&lt;div style=&quot;font-size: 8px;&quot; align=&quot;left&quot;&gt;&lt;div style=&quot;font-size: 8px;&quot; align=&quot;left&quot;&gt;&lt;font style=&quot;font-size: 8px;&quot;&gt;reg_file_inst_ctrl(1:0)&lt;/font&gt;&lt;/div&gt;&lt;/div&gt;&lt;div style=&quot;font-size: 8px;&quot; align=&quot;left&quot;&gt;&lt;div style=&quot;font-size: 8px;&quot; align=&quot;left&quot;&gt;&lt;font style=&quot;font-size: 8px;&quot;&gt;alu_result(31:0)&lt;/font&gt;&lt;font style=&quot;font-size: 8px;&quot;&gt;&lt;/font&gt;&lt;/div&gt;&lt;div style=&quot;font-size: 8px;&quot; align=&quot;left&quot;&gt;&lt;font style=&quot;font-size: 8px;&quot;&gt;pc_addr(31:0)&lt;/font&gt;&lt;font style=&quot;font-size: 8px;&quot;&gt;&lt;/font&gt;&lt;/div&gt;&lt;div style=&quot;font-size: 8px;&quot; align=&quot;left&quot;&gt;&lt;font style=&quot;font-size: 8px;&quot;&gt;rd_addr(4:0)&lt;/font&gt;&lt;/div&gt;&lt;font style=&quot;font-size: 8px;&quot;&gt;&lt;/font&gt;&lt;/div&gt;&lt;div style=&quot;font-size: 8px;&quot; align=&quot;left&quot;&gt;&lt;font style=&quot;font-size: 8px;&quot;&gt;rs1_addr(4:0)&lt;/font&gt;&lt;/div&gt;&lt;div style=&quot;font-size: 8px;&quot; align=&quot;left&quot;&gt;&lt;font style=&quot;font-size: 8px;&quot;&gt;rs2_addr(4:0)&lt;/font&gt;&lt;/div&gt;&lt;div style=&quot;font-size: 8px;&quot; align=&quot;left&quot;&gt;&lt;font style=&quot;font-size: 8px;&quot;&gt;rd_data(31:0)&lt;/font&gt;&lt;/div&gt;" style="text;html=1;strokeColor=none;fillColor=none;align=left;verticalAlign=middle;whiteSpace=wrap;rounded=0;fontColor=#000000;" parent="1" vertex="1">
          <mxGeometry x="1301" y="1540" width="82" height="76" as="geometry" />
        </mxCell>
        <mxCell id="Nq3vy76Jur3wy4Glu-vh-11" value="REGISTER_FILE" style="text;html=1;strokeColor=none;fillColor=none;align=center;verticalAlign=middle;whiteSpace=wrap;rounded=0;fontColor=#000000;" parent="1" vertex="1">
          <mxGeometry x="1300" y="1503" width="200" height="20" as="geometry" />
        </mxCell>
        <mxCell id="Nq3vy76Jur3wy4Glu-vh-12" value="&lt;div style=&quot;font-size: 8px;&quot; align=&quot;right&quot;&gt;&lt;font style=&quot;font-size: 8px;&quot;&gt;rs1_data(31:0)&lt;/font&gt;&lt;/div&gt;&lt;div style=&quot;font-size: 8px;&quot; align=&quot;right&quot;&gt;&lt;font style=&quot;font-size: 8px;&quot;&gt;rs2_data(31:0)&lt;br&gt;&lt;/font&gt;&lt;/div&gt;" style="text;html=1;strokeColor=none;fillColor=none;align=right;verticalAlign=middle;whiteSpace=wrap;rounded=0;fontColor=#000000;" parent="1" vertex="1">
          <mxGeometry x="1439" y="1529" width="60" height="20" as="geometry" />
        </mxCell>
        <mxCell id="Nq3vy76Jur3wy4Glu-vh-13" value="" style="rounded=0;whiteSpace=wrap;html=1;fillColor=none;strokeColor=#99ff33;strokeWidth=2;fontColor=#000000;" parent="1" vertex="1">
          <mxGeometry x="1700" y="1279" width="200" height="140" as="geometry" />
        </mxCell>
        <mxCell id="Nq3vy76Jur3wy4Glu-vh-14" value="&lt;div style=&quot;font-size: 8px;&quot; align=&quot;left&quot;&gt;&lt;font style=&quot;font-size: 8px;&quot;&gt;pc_addr(31:0)&lt;/font&gt;&lt;font style=&quot;font-size: 8px;&quot;&gt;&lt;/font&gt;&lt;/div&gt;&lt;div style=&quot;font-size: 8px;&quot; align=&quot;left&quot;&gt;&lt;div style=&quot;font-size: 8px;&quot; align=&quot;left&quot;&gt;&lt;font style=&quot;font-size: 8px;&quot;&gt;alu_mux_1_ctrl&lt;/font&gt;&lt;/div&gt;&lt;div style=&quot;font-size: 8px;&quot; align=&quot;left&quot;&gt;&lt;font style=&quot;font-size: 8px;&quot;&gt;rs1_data(31:0)&lt;/font&gt;&lt;font style=&quot;font-size: 8px;&quot;&gt;&lt;/font&gt;&lt;/div&gt;&lt;font style=&quot;font-size: 8px;&quot;&gt;&lt;/font&gt;&lt;/div&gt;" style="text;html=1;strokeColor=none;fillColor=none;align=left;verticalAlign=middle;whiteSpace=wrap;rounded=0;fontColor=#000000;" parent="1" vertex="1">
          <mxGeometry x="1701" y="1309" width="60" height="30" as="geometry" />
        </mxCell>
        <mxCell id="Nq3vy76Jur3wy4Glu-vh-15" value="MUX1" style="text;html=1;strokeColor=none;fillColor=none;align=center;verticalAlign=middle;whiteSpace=wrap;rounded=0;fontColor=#000000;" parent="1" vertex="1">
          <mxGeometry x="1700" y="1283" width="200" height="20" as="geometry" />
        </mxCell>
        <mxCell id="Nq3vy76Jur3wy4Glu-vh-16" value="&lt;div style=&quot;font-size: 8px;&quot; align=&quot;right&quot;&gt;&lt;font style=&quot;font-size: 8px;&quot;&gt;alu_operand_1(31:0)&lt;/font&gt;&lt;/div&gt;" style="text;html=1;strokeColor=none;fillColor=none;align=right;verticalAlign=middle;whiteSpace=wrap;rounded=0;fontColor=#000000;" parent="1" vertex="1">
          <mxGeometry x="1819" y="1309" width="80" height="20" as="geometry" />
        </mxCell>
        <mxCell id="Nq3vy76Jur3wy4Glu-vh-17" value="" style="rounded=0;whiteSpace=wrap;html=1;fillColor=none;strokeColor=#00cccc;strokeWidth=2;fontColor=#000000;" parent="1" vertex="1">
          <mxGeometry x="1700" y="1499" width="200" height="140" as="geometry" />
        </mxCell>
        <mxCell id="Nq3vy76Jur3wy4Glu-vh-18" value="&lt;div style=&quot;font-size: 8px;&quot; align=&quot;left&quot;&gt;&lt;font style=&quot;font-size: 8px;&quot;&gt;alu_mux_2_ctrl&lt;/font&gt;&lt;/div&gt;&lt;div style=&quot;font-size: 8px;&quot; align=&quot;left&quot;&gt;&lt;font style=&quot;font-size: 8px;&quot;&gt;rs2_data(31:0)&lt;/font&gt;&lt;/div&gt;&lt;div style=&quot;font-size: 8px;&quot; align=&quot;left&quot;&gt;&lt;font style=&quot;font-size: 8px;&quot;&gt;imm(31:0)&lt;br&gt;&lt;/font&gt;&lt;/div&gt;" style="text;html=1;strokeColor=none;fillColor=none;align=left;verticalAlign=middle;whiteSpace=wrap;rounded=0;fontColor=#000000;" parent="1" vertex="1">
          <mxGeometry x="1701" y="1529" width="60" height="30" as="geometry" />
        </mxCell>
        <mxCell id="Nq3vy76Jur3wy4Glu-vh-19" value="MUX2" style="text;html=1;strokeColor=none;fillColor=none;align=center;verticalAlign=middle;whiteSpace=wrap;rounded=0;fontColor=#000000;" parent="1" vertex="1">
          <mxGeometry x="1700" y="1503" width="200" height="20" as="geometry" />
        </mxCell>
        <mxCell id="Nq3vy76Jur3wy4Glu-vh-20" value="&lt;div style=&quot;font-size: 8px;&quot; align=&quot;right&quot;&gt;&lt;font style=&quot;font-size: 8px;&quot;&gt;alu_operand_2(31:0)&lt;/font&gt;&lt;/div&gt;" style="text;html=1;strokeColor=none;fillColor=none;align=right;verticalAlign=middle;whiteSpace=wrap;rounded=0;fontColor=#000000;" parent="1" vertex="1">
          <mxGeometry x="1819" y="1529" width="80" height="10" as="geometry" />
        </mxCell>
        <mxCell id="Nq3vy76Jur3wy4Glu-vh-21" value="&amp;nbsp;" style="rounded=0;whiteSpace=wrap;html=1;fillColor=none;strokeColor=#007fff;strokeWidth=2;fontColor=#000000;" parent="1" vertex="1">
          <mxGeometry x="2100" y="1389" width="200" height="140" as="geometry" />
        </mxCell>
        <mxCell id="Nq3vy76Jur3wy4Glu-vh-22" value="&lt;div style=&quot;font-size: 8px;&quot; align=&quot;left&quot;&gt;&lt;font style=&quot;font-size: 8px;&quot;&gt;alu_operand_1(31:0)&lt;/font&gt;&lt;/div&gt;&lt;div style=&quot;font-size: 8px;&quot; align=&quot;left&quot;&gt;&lt;font style=&quot;font-size: 8px;&quot;&gt;alu_control(4:0)&lt;/font&gt;&lt;/div&gt;&lt;div style=&quot;font-size: 8px;&quot; align=&quot;left&quot;&gt;&lt;div style=&quot;font-size: 8px;&quot; align=&quot;left&quot;&gt;&lt;font style=&quot;font-size: 8px;&quot;&gt;alu_operand_2(31:0)&lt;/font&gt;&lt;/div&gt;&lt;font style=&quot;font-size: 8px;&quot;&gt;&lt;/font&gt;&lt;/div&gt;" style="text;html=1;strokeColor=none;fillColor=none;align=left;verticalAlign=middle;whiteSpace=wrap;rounded=0;fontColor=#000000;" parent="1" vertex="1">
          <mxGeometry x="2101" y="1419" width="80" height="30" as="geometry" />
        </mxCell>
        <mxCell id="Nq3vy76Jur3wy4Glu-vh-23" value="ALU" style="text;html=1;strokeColor=none;fillColor=none;align=center;verticalAlign=middle;whiteSpace=wrap;rounded=0;fontColor=#000000;" parent="1" vertex="1">
          <mxGeometry x="2100" y="1393" width="200" height="20" as="geometry" />
        </mxCell>
        <mxCell id="Nq3vy76Jur3wy4Glu-vh-24" value="&lt;div style=&quot;font-size: 8px;&quot; align=&quot;right&quot;&gt;&lt;font style=&quot;font-size: 8px;&quot;&gt;alu_result(31:0)&lt;/font&gt;&lt;/div&gt;" style="text;html=1;strokeColor=none;fillColor=none;align=right;verticalAlign=middle;whiteSpace=wrap;rounded=0;fontColor=#000000;" parent="1" vertex="1">
          <mxGeometry x="2240" y="1419" width="59" height="20" as="geometry" />
        </mxCell>
        <mxCell id="Nq3vy76Jur3wy4Glu-vh-25" value="" style="rounded=0;whiteSpace=wrap;html=1;fillColor=none;strokeColor=#ff3399;strokeWidth=2;fontColor=#000000;" parent="1" vertex="1">
          <mxGeometry x="1290" y="1090" width="200" height="140" as="geometry" />
        </mxCell>
        <mxCell id="Nq3vy76Jur3wy4Glu-vh-26" value="&lt;div style=&quot;font-size: 8px;&quot; align=&quot;left&quot;&gt;&lt;font style=&quot;font-size: 8px;&quot;&gt;clk&lt;br&gt;&lt;/font&gt;&lt;/div&gt;&lt;div style=&quot;font-size: 8px;&quot; align=&quot;left&quot;&gt;&lt;font style=&quot;font-size: 8px;&quot;&gt;instruction_addr(31:0)&lt;/font&gt;&lt;/div&gt;" style="text;html=1;strokeColor=none;fillColor=none;align=left;verticalAlign=middle;whiteSpace=wrap;rounded=0;fontColor=#000000;" parent="1" vertex="1">
          <mxGeometry x="1291" y="1116" width="80" height="20" as="geometry" />
        </mxCell>
        <mxCell id="Nq3vy76Jur3wy4Glu-vh-27" value="INSTRUCTION_MEMORY" style="text;html=1;strokeColor=none;fillColor=none;align=center;verticalAlign=middle;whiteSpace=wrap;rounded=0;fontColor=#000000;" parent="1" vertex="1">
          <mxGeometry x="1290" y="1094" width="200" height="20" as="geometry" />
        </mxCell>
        <mxCell id="Nq3vy76Jur3wy4Glu-vh-28" value="&lt;div style=&quot;font-size: 8px;&quot; align=&quot;right&quot;&gt;&lt;font style=&quot;font-size: 8px;&quot;&gt;instruction(31:0)&lt;/font&gt;&lt;/div&gt;" style="text;html=1;strokeColor=none;fillColor=none;align=right;verticalAlign=middle;whiteSpace=wrap;rounded=0;fontColor=#000000;" parent="1" vertex="1">
          <mxGeometry x="1429" y="1120" width="60" height="20" as="geometry" />
        </mxCell>
        <mxCell id="WBGVOQ_4j9fBxjr6cf3C-39" value="" style="rounded=0;whiteSpace=wrap;html=1;fillColor=none;strokeColor=#666600;strokeWidth=2;fontColor=#000000;" parent="1" vertex="1">
          <mxGeometry x="900" y="1274" width="200" height="140" as="geometry" />
        </mxCell>
        <mxCell id="WBGVOQ_4j9fBxjr6cf3C-40" value="&lt;div style=&quot;font-size: 8px;&quot; align=&quot;left&quot;&gt;&lt;font style=&quot;font-size: 8px;&quot;&gt;clk&lt;/font&gt;&lt;/div&gt;&lt;div style=&quot;font-size: 8px;&quot; align=&quot;left&quot;&gt;&lt;font style=&quot;font-size: 8px;&quot;&gt;alu_result(31:0)&lt;/font&gt;&lt;/div&gt;&lt;div style=&quot;font-size: 8px;&quot; align=&quot;left&quot;&gt;&lt;font style=&quot;font-size: 8px;&quot;&gt;pc_ctrl(1:0)&lt;/font&gt;&lt;/div&gt;&lt;div style=&quot;font-size: 8px;&quot; align=&quot;left&quot;&gt;&lt;font style=&quot;font-size: 8px;&quot;&gt;inst_addr_ctrl&lt;br&gt;&lt;/font&gt;&lt;/div&gt;" style="text;html=1;strokeColor=none;fillColor=none;align=left;verticalAlign=middle;whiteSpace=wrap;rounded=0;fontColor=#000000;" parent="1" vertex="1">
          <mxGeometry x="901" y="1301" width="59" height="40" as="geometry" />
        </mxCell>
        <mxCell id="WBGVOQ_4j9fBxjr6cf3C-41" value="PROGRAM_COUNTER" style="text;html=1;strokeColor=none;fillColor=none;align=center;verticalAlign=middle;whiteSpace=wrap;rounded=0;fontColor=#000000;" parent="1" vertex="1">
          <mxGeometry x="900" y="1278" width="200" height="20" as="geometry" />
        </mxCell>
        <mxCell id="WBGVOQ_4j9fBxjr6cf3C-42" value="&lt;div style=&quot;font-size: 8px;&quot; align=&quot;right&quot;&gt;&lt;font style=&quot;font-size: 8px;&quot;&gt;instruction_addr(31:0)&lt;/font&gt;&lt;/div&gt;&lt;div style=&quot;font-size: 8px;&quot; align=&quot;right&quot;&gt;&lt;font style=&quot;font-size: 8px;&quot;&gt;pc_addr(31:0)&lt;br&gt;&lt;/font&gt;&lt;/div&gt;" style="text;html=1;strokeColor=none;fillColor=none;align=right;verticalAlign=middle;whiteSpace=wrap;rounded=0;fontColor=#000000;" parent="1" vertex="1">
          <mxGeometry x="1018" y="1301" width="82" height="20" as="geometry" />
        </mxCell>
        <mxCell id="HfboubUgEW3dS0zUGy0d-5" value="" style="rounded=0;whiteSpace=wrap;html=1;fillColor=none;strokeColor=#00FFFF;strokeWidth=2;fontColor=#000000;" parent="1" vertex="1">
          <mxGeometry x="1700" y="1719" width="200" height="140" as="geometry" />
        </mxCell>
        <mxCell id="HfboubUgEW3dS0zUGy0d-6" value="&lt;div style=&quot;font-size: 8px;&quot; align=&quot;left&quot;&gt;&lt;div style=&quot;font-size: 8px;&quot; align=&quot;left&quot;&gt;imm(31:0)&lt;/div&gt;&lt;/div&gt;&lt;div style=&quot;font-size: 8px;&quot; align=&quot;left&quot;&gt;&lt;div style=&quot;font-size: 8px;&quot; align=&quot;left&quot;&gt;&lt;font style=&quot;font-size: 8px;&quot;&gt;rs2_data(31:0)&lt;/font&gt;&lt;/div&gt;&lt;div style=&quot;font-size: 8px;&quot; align=&quot;left&quot;&gt;&lt;div style=&quot;font-size: 8px;&quot; align=&quot;left&quot;&gt;&lt;font style=&quot;font-size: 8px;&quot;&gt;rs1_data(31:0)&lt;/font&gt;&lt;/div&gt;&lt;/div&gt;&lt;div style=&quot;font-size: 8px;&quot; align=&quot;left&quot;&gt;&lt;font style=&quot;font-size: 8px;&quot;&gt;ram_management_ctrl(3:0)&lt;/font&gt;&lt;/div&gt;&lt;div style=&quot;font-size: 8px;&quot; align=&quot;left&quot;&gt;i_data_from_ram(31:0)&lt;br&gt;&lt;/div&gt;&lt;/div&gt;" style="text;html=1;strokeColor=none;fillColor=none;align=left;verticalAlign=middle;whiteSpace=wrap;rounded=0;fontColor=#000000;" parent="1" vertex="1">
          <mxGeometry x="1701" y="1749" width="100" height="51" as="geometry" />
        </mxCell>
        <mxCell id="HfboubUgEW3dS0zUGy0d-7" value="RAM_MANAGEMENT" style="text;html=1;strokeColor=none;fillColor=none;align=center;verticalAlign=middle;whiteSpace=wrap;rounded=0;fontColor=#000000;" parent="1" vertex="1">
          <mxGeometry x="1700" y="1723" width="200" height="16" as="geometry" />
        </mxCell>
        <mxCell id="HfboubUgEW3dS0zUGy0d-8" value="&lt;div style=&quot;font-size: 8px;&quot; align=&quot;right&quot;&gt;&lt;font style=&quot;font-size: 8px;&quot;&gt;rd_data(31:0)&lt;/font&gt;&lt;font style=&quot;font-size: 8px;&quot;&gt;&lt;/font&gt;&lt;/div&gt;&lt;div style=&quot;font-size: 8px;&quot; align=&quot;right&quot;&gt;&lt;font style=&quot;font-size: 8px;&quot;&gt;write_enable&lt;/font&gt;&lt;font style=&quot;font-size: 8px;&quot;&gt;&lt;/font&gt;&lt;div style=&quot;font-size: 8px;&quot; align=&quot;right&quot;&gt;&lt;font style=&quot;font-size: 8px;&quot;&gt;raddr&lt;/font&gt; (integer)&lt;br&gt;&lt;/div&gt;&lt;/div&gt;&lt;div style=&quot;font-size: 8px;&quot; align=&quot;right&quot;&gt;&lt;font style=&quot;font-size: 8px;&quot;&gt;&lt;/font&gt;&lt;div style=&quot;font-size: 8px;&quot; align=&quot;right&quot;&gt;&lt;font style=&quot;font-size: 8px;&quot;&gt;waddr (integer)&lt;br&gt;&lt;/font&gt;&lt;/div&gt;&lt;font style=&quot;font-size: 8px;&quot;&gt;&lt;/font&gt;&lt;/div&gt;&lt;div style=&quot;font-size: 8px;&quot; align=&quot;right&quot;&gt;&lt;font style=&quot;font-size: 8px;&quot;&gt;byte_enable(3:0)&lt;/font&gt;&lt;/div&gt;&lt;div style=&quot;font-size: 8px;&quot; align=&quot;right&quot;&gt;&lt;font style=&quot;font-size: 8px;&quot;&gt;data(31:0)&lt;/font&gt;&lt;/div&gt;" style="text;html=1;strokeColor=none;fillColor=none;align=right;verticalAlign=middle;whiteSpace=wrap;rounded=0;fontColor=#000000;" parent="1" vertex="1">
          <mxGeometry x="1831" y="1748" width="68" height="63" as="geometry" />
        </mxCell>
        <mxCell id="3gstqMGpocRiPtmlr0DV-15" value="" style="rounded=0;whiteSpace=wrap;html=1;fillColor=none;strokeColor=#B57E51;strokeWidth=2;fontColor=#000000;" parent="1" vertex="1">
          <mxGeometry x="837" y="695" width="220" height="140" as="geometry" />
        </mxCell>
        <mxCell id="3gstqMGpocRiPtmlr0DV-16" value="&lt;div style=&quot;font-size: 8px;&quot; align=&quot;left&quot;&gt;&lt;font style=&quot;font-size: 8px;&quot;&gt;clk&lt;/font&gt;&lt;/div&gt;&lt;div style=&quot;font-size: 8px;&quot; align=&quot;left&quot;&gt;&lt;font style=&quot;font-size: 8px;&quot;&gt;raddr&lt;/font&gt; (integer)&lt;br&gt;&lt;/div&gt;&lt;div style=&quot;font-size: 8px;&quot; align=&quot;left&quot;&gt;&lt;font style=&quot;font-size: 8px;&quot;&gt;waddr (integer)&lt;br&gt;&lt;/font&gt;&lt;/div&gt;&lt;div style=&quot;font-size: 8px;&quot; align=&quot;left&quot;&gt;&lt;font style=&quot;font-size: 8px;&quot;&gt;we&lt;br&gt;&lt;/font&gt;&lt;/div&gt;&lt;div style=&quot;font-size: 8px;&quot; align=&quot;left&quot;&gt;&lt;font style=&quot;font-size: 8px;&quot;&gt;wdata(31:0)&lt;/font&gt;&lt;/div&gt;&lt;div style=&quot;font-size: 8px;&quot; align=&quot;left&quot;&gt;&lt;font style=&quot;font-size: 8px;&quot;&gt;be(3:0)&lt;br&gt;&lt;/font&gt;&lt;/div&gt;" style="text;html=1;strokeColor=none;fillColor=none;align=left;verticalAlign=middle;whiteSpace=wrap;rounded=0;fontColor=#000000;" parent="1" vertex="1">
          <mxGeometry x="838" y="719" width="70" height="61" as="geometry" />
        </mxCell>
        <mxCell id="3gstqMGpocRiPtmlr0DV-17" value="RAM" style="text;html=1;strokeColor=none;fillColor=none;align=center;verticalAlign=middle;whiteSpace=wrap;rounded=0;fontColor=#000000;" parent="1" vertex="1">
          <mxGeometry x="837" y="699" width="220" height="20" as="geometry" />
        </mxCell>
        <mxCell id="3gstqMGpocRiPtmlr0DV-18" value="&lt;div style=&quot;font-size: 8px;&quot; align=&quot;right&quot;&gt;&lt;font style=&quot;font-size: 8px;&quot;&gt;q(31:0)&lt;/font&gt;&lt;/div&gt;" style="text;html=1;strokeColor=none;fillColor=none;align=right;verticalAlign=middle;whiteSpace=wrap;rounded=0;fontColor=#000000;" parent="1" vertex="1">
          <mxGeometry x="1025" y="719" width="31" height="16" as="geometry" />
        </mxCell>
        <mxCell id="4SwvQqKv90205dTWW9fl-2" value="&lt;div style=&quot;font-size: 16px;&quot; align=&quot;right&quot;&gt;&lt;font style=&quot;font-size: 16px;&quot;&gt;&lt;b&gt;&lt;font style=&quot;font-size: 16px;&quot;&gt;core_write_enable&lt;/font&gt;&lt;/b&gt;&lt;/font&gt;&lt;/div&gt;&lt;div style=&quot;font-size: 16px;&quot; align=&quot;right&quot;&gt;&lt;font style=&quot;font-size: 16px;&quot;&gt;&lt;b&gt;&lt;font style=&quot;font-size: 16px;&quot;&gt;core_addr_read (integer)&lt;br&gt;&lt;/font&gt;&lt;/b&gt;&lt;/font&gt;&lt;/div&gt;&lt;div style=&quot;font-size: 16px;&quot; align=&quot;right&quot;&gt;&lt;font style=&quot;font-size: 16px;&quot;&gt;&lt;b&gt;&lt;font style=&quot;font-size: 16px;&quot;&gt;core_addr_write (integer)&lt;br&gt;&lt;/font&gt;&lt;/b&gt;&lt;/font&gt;&lt;/div&gt;&lt;div style=&quot;font-size: 16px;&quot; align=&quot;right&quot;&gt;&lt;font style=&quot;font-size: 16px;&quot;&gt;&lt;b&gt;&lt;font style=&quot;font-size: 16px;&quot;&gt;core_byte_enable(3:0)&lt;/font&gt;&lt;/b&gt;&lt;/font&gt;&lt;/div&gt;&lt;div style=&quot;font-size: 16px;&quot; align=&quot;right&quot;&gt;&lt;font style=&quot;font-size: 16px;&quot;&gt;&lt;b&gt;&lt;font style=&quot;font-size: 16px;&quot;&gt;&lt;font style=&quot;font-size: 16px;&quot;&gt;&lt;b&gt;&lt;font style=&quot;font-size: 16px;&quot;&gt;core_data_write&lt;/font&gt;&lt;/b&gt;&lt;/font&gt;(31:0)&lt;br&gt;&lt;/font&gt;&lt;/b&gt;&lt;/font&gt;&lt;/div&gt;" style="text;html=1;strokeColor=none;fillColor=none;align=right;verticalAlign=middle;whiteSpace=wrap;rounded=0;" parent="1" vertex="1">
          <mxGeometry x="2481" y="1014" width="195" height="117" as="geometry" />
        </mxCell>
        <mxCell id="6XQH-ZIWkHCpFrcvFsyq-4" value="&lt;font style=&quot;font-size: 16px;&quot;&gt;&lt;b&gt;&lt;font style=&quot;font-size: 16px;&quot;&gt;ram_q&lt;/font&gt;&lt;/b&gt;&lt;/font&gt;" style="text;html=1;strokeColor=none;fillColor=none;align=center;verticalAlign=middle;whiteSpace=wrap;rounded=0;" parent="1" vertex="1">
          <mxGeometry x="1108" y="718" width="55" height="20" as="geometry" />
        </mxCell>
        <mxCell id="6XQH-ZIWkHCpFrcvFsyq-6" value="&lt;font style=&quot;font-size: 26px;&quot;&gt;&lt;b&gt;CORE&lt;/b&gt;&lt;/font&gt;" style="text;html=1;strokeColor=none;fillColor=none;align=center;verticalAlign=middle;whiteSpace=wrap;rounded=0;fontColor=#000000;" parent="1" vertex="1">
          <mxGeometry x="1235" y="986" width="60" height="20" as="geometry" />
        </mxCell>
        <mxCell id="Ia1AkE6VqReakgYp9iSG-2" value="" style="rounded=0;whiteSpace=wrap;html=1;fillColor=none;strokeColor=#B5B500;strokeWidth=2;fontColor=#000000;" parent="1" vertex="1">
          <mxGeometry x="1700" y="1939" width="200" height="140" as="geometry" />
        </mxCell>
        <mxCell id="Ia1AkE6VqReakgYp9iSG-3" value="&lt;div style=&quot;font-size: 8px;&quot; align=&quot;left&quot;&gt;&lt;div style=&quot;font-size: 8px;&quot; align=&quot;left&quot;&gt;&lt;font style=&quot;font-size: 8px;&quot;&gt;rs2_data(31:0)&lt;/font&gt;&lt;/div&gt;&lt;font style=&quot;font-size: 8px;&quot;&gt;&lt;/font&gt;&lt;/div&gt;&lt;div style=&quot;font-size: 8px;&quot; align=&quot;left&quot;&gt;&lt;font style=&quot;font-size: 8px;&quot;&gt;rs1_data(31:0)&lt;br&gt;&lt;/font&gt;&lt;/div&gt;&lt;div style=&quot;font-size: 8px;&quot; align=&quot;left&quot;&gt;&lt;div style=&quot;font-size: 8px;&quot; align=&quot;left&quot;&gt;&lt;font style=&quot;font-size: 8px;&quot;&gt;branch_ctrl(2:0)&lt;/font&gt;&lt;/div&gt;&lt;font style=&quot;font-size: 8px;&quot;&gt;&lt;/font&gt;&lt;/div&gt;" style="text;html=1;strokeColor=none;fillColor=none;align=left;verticalAlign=middle;whiteSpace=wrap;rounded=0;fontColor=#000000;" parent="1" vertex="1">
          <mxGeometry x="1701" y="1969" width="62" height="30" as="geometry" />
        </mxCell>
        <mxCell id="Ia1AkE6VqReakgYp9iSG-4" value="BRANCH_INSTRUCTIONS" style="text;html=1;strokeColor=none;fillColor=none;align=center;verticalAlign=middle;whiteSpace=wrap;rounded=0;fontColor=#000000;" parent="1" vertex="1">
          <mxGeometry x="1700" y="1944" width="200" height="20" as="geometry" />
        </mxCell>
        <mxCell id="Ia1AkE6VqReakgYp9iSG-5" value="&lt;font style=&quot;font-size: 8px;&quot;&gt;branch_result&lt;br&gt;&lt;/font&gt;" style="text;html=1;strokeColor=none;fillColor=none;align=right;verticalAlign=middle;whiteSpace=wrap;rounded=0;fontColor=#000000;" parent="1" vertex="1">
          <mxGeometry x="1840" y="1969" width="58" height="14" as="geometry" />
        </mxCell>
        <mxCell id="UCRnNolcWxTBBTJZz29h-6" value="" style="endArrow=none;html=1;rounded=0;strokeWidth=2;strokeColor=#FF9999;" parent="1" edge="1">
          <mxGeometry width="50" height="50" relative="1" as="geometry">
            <mxPoint x="381" y="1554" as="sourcePoint" />
            <mxPoint x="473" y="1554" as="targetPoint" />
          </mxGeometry>
        </mxCell>
        <mxCell id="UCRnNolcWxTBBTJZz29h-7" value="" style="endArrow=none;html=1;rounded=0;strokeWidth=2;strokeColor=#FF9999;" parent="1" edge="1">
          <mxGeometry width="50" height="50" relative="1" as="geometry">
            <mxPoint x="381" y="1545" as="sourcePoint" />
            <mxPoint x="481" y="1545" as="targetPoint" />
          </mxGeometry>
        </mxCell>
        <mxCell id="UCRnNolcWxTBBTJZz29h-8" value="" style="endArrow=none;html=1;rounded=0;strokeWidth=2;strokeColor=#FF9999;" parent="1" edge="1">
          <mxGeometry width="50" height="50" relative="1" as="geometry">
            <mxPoint x="381" y="1535" as="sourcePoint" />
            <mxPoint x="490" y="1535" as="targetPoint" />
          </mxGeometry>
        </mxCell>
        <mxCell id="UCRnNolcWxTBBTJZz29h-9" value="" style="endArrow=classic;html=1;rounded=0;endSize=1;startSize=3;strokeWidth=2;strokeColor=#FF9999;" parent="1" edge="1">
          <mxGeometry width="50" height="50" relative="1" as="geometry">
            <mxPoint x="472" y="1677" as="sourcePoint" />
            <mxPoint x="579" y="1677" as="targetPoint" />
          </mxGeometry>
        </mxCell>
        <mxCell id="UCRnNolcWxTBBTJZz29h-10" value="" style="endArrow=classic;html=1;rounded=0;strokeWidth=2;endSize=1;strokeColor=#FF9999;" parent="1" edge="1">
          <mxGeometry width="50" height="50" relative="1" as="geometry">
            <mxPoint x="480" y="1668" as="sourcePoint" />
            <mxPoint x="579" y="1668" as="targetPoint" />
          </mxGeometry>
        </mxCell>
        <mxCell id="UCRnNolcWxTBBTJZz29h-11" value="" style="endArrow=classic;html=1;rounded=0;endSize=1;strokeWidth=2;strokeColor=#FF9999;" parent="1" edge="1">
          <mxGeometry width="50" height="50" relative="1" as="geometry">
            <mxPoint x="489" y="1658" as="sourcePoint" />
            <mxPoint x="579" y="1658" as="targetPoint" />
          </mxGeometry>
        </mxCell>
        <mxCell id="UCRnNolcWxTBBTJZz29h-12" value="" style="endArrow=none;html=1;rounded=0;strokeWidth=2;strokeColor=#FF9999;" parent="1" edge="1">
          <mxGeometry width="50" height="50" relative="1" as="geometry">
            <mxPoint x="489" y="1658" as="sourcePoint" />
            <mxPoint x="489" y="1535" as="targetPoint" />
          </mxGeometry>
        </mxCell>
        <mxCell id="UCRnNolcWxTBBTJZz29h-13" value="" style="endArrow=none;html=1;rounded=0;strokeWidth=2;strokeColor=#FF9999;" parent="1" edge="1">
          <mxGeometry width="50" height="50" relative="1" as="geometry">
            <mxPoint x="480" y="1668" as="sourcePoint" />
            <mxPoint x="480" y="1545" as="targetPoint" />
          </mxGeometry>
        </mxCell>
        <mxCell id="UCRnNolcWxTBBTJZz29h-14" value="" style="endArrow=none;html=1;rounded=0;strokeWidth=2;strokeColor=#FF9999;" parent="1" edge="1">
          <mxGeometry width="50" height="50" relative="1" as="geometry">
            <mxPoint x="472" y="1677" as="sourcePoint" />
            <mxPoint x="472" y="1554" as="targetPoint" />
          </mxGeometry>
        </mxCell>
        <mxCell id="UCRnNolcWxTBBTJZz29h-17" value="" style="endArrow=classic;html=1;rounded=0;endSize=1;strokeWidth=2;strokeColor=#FF3399;" parent="1" edge="1">
          <mxGeometry width="50" height="50" relative="1" as="geometry">
            <mxPoint x="144" y="1501" as="sourcePoint" />
            <mxPoint x="179" y="1501" as="targetPoint" />
          </mxGeometry>
        </mxCell>
        <mxCell id="UCRnNolcWxTBBTJZz29h-18" value="" style="endArrow=classic;html=1;rounded=0;endSize=1;strokeWidth=2;strokeColor=#007FFF;" parent="1" edge="1">
          <mxGeometry width="50" height="50" relative="1" as="geometry">
            <mxPoint x="842" y="1318" as="sourcePoint" />
            <mxPoint x="899" y="1318" as="targetPoint" />
          </mxGeometry>
        </mxCell>
        <mxCell id="UCRnNolcWxTBBTJZz29h-19" value="" style="endArrow=classic;html=1;rounded=0;endSize=1;strokeWidth=2;strokeColor=#FFCC99;" parent="1" edge="1">
          <mxGeometry width="50" height="50" relative="1" as="geometry">
            <mxPoint x="842" y="1336" as="sourcePoint" />
            <mxPoint x="899" y="1336" as="targetPoint" />
          </mxGeometry>
        </mxCell>
        <mxCell id="UCRnNolcWxTBBTJZz29h-20" value="" style="endArrow=classic;html=1;rounded=0;endSize=1;strokeWidth=2;strokeColor=#666600;" parent="1" edge="1">
          <mxGeometry width="50" height="50" relative="1" as="geometry">
            <mxPoint x="1235" y="1132" as="sourcePoint" />
            <mxPoint x="1289" y="1132" as="targetPoint" />
          </mxGeometry>
        </mxCell>
        <mxCell id="UCRnNolcWxTBBTJZz29h-22" value="" style="endArrow=classic;html=1;rounded=0;endSize=1;strokeWidth=2;strokeColor=#FFCC99;" parent="1" edge="1">
          <mxGeometry width="50" height="50" relative="1" as="geometry">
            <mxPoint x="876" y="1556" as="sourcePoint" />
            <mxPoint x="1299" y="1556" as="targetPoint" />
          </mxGeometry>
        </mxCell>
        <mxCell id="UCRnNolcWxTBBTJZz29h-23" value="" style="endArrow=classic;html=1;rounded=0;endSize=1;strokeWidth=2;strokeColor=#007FFF;" parent="1" edge="1">
          <mxGeometry width="50" height="50" relative="1" as="geometry">
            <mxPoint x="1251" y="1565" as="sourcePoint" />
            <mxPoint x="1299" y="1565" as="targetPoint" />
          </mxGeometry>
        </mxCell>
        <mxCell id="UCRnNolcWxTBBTJZz29h-24" value="" style="endArrow=classic;html=1;rounded=0;endSize=1;strokeWidth=2;strokeColor=#666600;" parent="1" edge="1">
          <mxGeometry width="50" height="50" relative="1" as="geometry">
            <mxPoint x="1236" y="1575" as="sourcePoint" />
            <mxPoint x="1299" y="1575" as="targetPoint" />
          </mxGeometry>
        </mxCell>
        <mxCell id="UCRnNolcWxTBBTJZz29h-25" value="" style="endArrow=classic;html=1;rounded=0;endSize=1;strokeWidth=2;strokeColor=#FF9999;" parent="1" edge="1">
          <mxGeometry width="50" height="50" relative="1" as="geometry">
            <mxPoint x="924" y="1584" as="sourcePoint" />
            <mxPoint x="1299" y="1584" as="targetPoint" />
          </mxGeometry>
        </mxCell>
        <mxCell id="UCRnNolcWxTBBTJZz29h-26" value="" style="endArrow=classic;html=1;rounded=0;endSize=1;strokeWidth=2;strokeColor=#FF9999;" parent="1" edge="1">
          <mxGeometry width="50" height="50" relative="1" as="geometry">
            <mxPoint x="912" y="1595" as="sourcePoint" />
            <mxPoint x="1299" y="1594" as="targetPoint" />
          </mxGeometry>
        </mxCell>
        <mxCell id="UCRnNolcWxTBBTJZz29h-27" value="" style="endArrow=classic;html=1;rounded=0;endSize=1;strokeWidth=2;strokeColor=#FF9999;" parent="1" edge="1">
          <mxGeometry width="50" height="50" relative="1" as="geometry">
            <mxPoint x="900" y="1603" as="sourcePoint" />
            <mxPoint x="1299" y="1603" as="targetPoint" />
          </mxGeometry>
        </mxCell>
        <mxCell id="UCRnNolcWxTBBTJZz29h-28" value="" style="endArrow=classic;html=1;rounded=0;endSize=1;strokeWidth=2;strokeColor=#B57E51;" parent="1" edge="1">
          <mxGeometry width="50" height="50" relative="1" as="geometry">
            <mxPoint x="1638" y="1796" as="sourcePoint" />
            <mxPoint x="1698" y="1796" as="targetPoint" />
          </mxGeometry>
        </mxCell>
        <mxCell id="UCRnNolcWxTBBTJZz29h-30" value="" style="endArrow=classic;html=1;rounded=0;endSize=1;strokeWidth=2;exitX=1.002;exitY=0.298;exitDx=0;exitDy=0;exitPerimeter=0;strokeColor=#666600;" parent="1" source="WBGVOQ_4j9fBxjr6cf3C-39" edge="1">
          <mxGeometry width="50" height="50" relative="1" as="geometry">
            <mxPoint x="1104" y="1316" as="sourcePoint" />
            <mxPoint x="1699" y="1316" as="targetPoint" />
          </mxGeometry>
        </mxCell>
        <mxCell id="UCRnNolcWxTBBTJZz29h-31" value="" style="endArrow=classic;html=1;rounded=0;endSize=1;strokeWidth=2;strokeColor=#FFFF66;" parent="1" edge="1">
          <mxGeometry width="50" height="50" relative="1" as="geometry">
            <mxPoint x="1575" y="1335" as="sourcePoint" />
            <mxPoint x="1699" y="1335" as="targetPoint" />
          </mxGeometry>
        </mxCell>
        <mxCell id="UCRnNolcWxTBBTJZz29h-32" value="" style="endArrow=classic;html=1;rounded=0;endSize=1;strokeWidth=2;strokeColor=#FFCC99;" parent="1" edge="1">
          <mxGeometry width="50" height="50" relative="1" as="geometry">
            <mxPoint x="1140" y="1325" as="sourcePoint" />
            <mxPoint x="1699" y="1325" as="targetPoint" />
          </mxGeometry>
        </mxCell>
        <mxCell id="UCRnNolcWxTBBTJZz29h-33" value="" style="endArrow=classic;html=1;rounded=0;endSize=1;strokeWidth=2;strokeColor=#FFCC99;" parent="1" edge="1">
          <mxGeometry width="50" height="50" relative="1" as="geometry">
            <mxPoint x="1584" y="1536" as="sourcePoint" />
            <mxPoint x="1699" y="1536" as="targetPoint" />
          </mxGeometry>
        </mxCell>
        <mxCell id="UCRnNolcWxTBBTJZz29h-34" value="" style="endArrow=classic;html=1;rounded=0;endSize=1;strokeWidth=2;exitX=1.002;exitY=0.333;exitDx=0;exitDy=0;exitPerimeter=0;strokeColor=#FFFF66;" parent="1" source="Nq3vy76Jur3wy4Glu-vh-9" edge="1">
          <mxGeometry width="50" height="50" relative="1" as="geometry">
            <mxPoint x="1660" y="1546" as="sourcePoint" />
            <mxPoint x="1699" y="1546" as="targetPoint" />
          </mxGeometry>
        </mxCell>
        <mxCell id="UCRnNolcWxTBBTJZz29h-35" value="" style="endArrow=classic;html=1;rounded=0;endSize=1;strokeWidth=2;strokeColor=#FF9999;" parent="1" edge="1">
          <mxGeometry width="50" height="50" relative="1" as="geometry">
            <mxPoint x="1660" y="1555" as="sourcePoint" />
            <mxPoint x="1699" y="1555" as="targetPoint" />
          </mxGeometry>
        </mxCell>
        <mxCell id="UCRnNolcWxTBBTJZz29h-39" value="" style="endArrow=classic;html=1;rounded=0;endSize=1;strokeWidth=2;strokeColor=#FF9999;" parent="1" edge="1">
          <mxGeometry width="50" height="50" relative="1" as="geometry">
            <mxPoint x="1659" y="1757" as="sourcePoint" />
            <mxPoint x="1699" y="1757" as="targetPoint" />
          </mxGeometry>
        </mxCell>
        <mxCell id="UCRnNolcWxTBBTJZz29h-40" value="" style="endArrow=classic;html=1;rounded=0;endSize=1;strokeWidth=2;strokeColor=#FFFF66;" parent="1" edge="1">
          <mxGeometry width="50" height="50" relative="1" as="geometry">
            <mxPoint x="1584" y="1767" as="sourcePoint" />
            <mxPoint x="1699" y="1767" as="targetPoint" />
          </mxGeometry>
        </mxCell>
        <mxCell id="UCRnNolcWxTBBTJZz29h-41" value="" style="endArrow=classic;html=1;rounded=0;endSize=1;strokeWidth=2;strokeColor=#FFFF66;" parent="1" edge="1">
          <mxGeometry width="50" height="50" relative="1" as="geometry">
            <mxPoint x="1575" y="1776" as="sourcePoint" />
            <mxPoint x="1699" y="1776" as="targetPoint" />
          </mxGeometry>
        </mxCell>
        <mxCell id="UCRnNolcWxTBBTJZz29h-42" value="" style="endArrow=classic;html=1;rounded=0;endSize=1;strokeWidth=2;strokeColor=#FFCC99;" parent="1" edge="1">
          <mxGeometry width="50" height="50" relative="1" as="geometry">
            <mxPoint x="885" y="1785" as="sourcePoint" />
            <mxPoint x="1699" y="1785" as="targetPoint" />
          </mxGeometry>
        </mxCell>
        <mxCell id="UCRnNolcWxTBBTJZz29h-47" value="" style="endArrow=classic;html=1;rounded=0;endSize=1;strokeWidth=2;strokeColor=#FFFF66;" parent="1" edge="1">
          <mxGeometry width="50" height="50" relative="1" as="geometry">
            <mxPoint x="1583" y="1976" as="sourcePoint" />
            <mxPoint x="1699" y="1976" as="targetPoint" />
          </mxGeometry>
        </mxCell>
        <mxCell id="UCRnNolcWxTBBTJZz29h-48" value="" style="endArrow=classic;html=1;rounded=0;endSize=1;strokeWidth=2;strokeColor=#FFFF66;" parent="1" edge="1">
          <mxGeometry width="50" height="50" relative="1" as="geometry">
            <mxPoint x="1575" y="1986" as="sourcePoint" />
            <mxPoint x="1699" y="1986" as="targetPoint" />
          </mxGeometry>
        </mxCell>
        <mxCell id="UCRnNolcWxTBBTJZz29h-49" value="" style="endArrow=classic;html=1;rounded=0;endSize=1;strokeWidth=2;strokeColor=#FFCC99;" parent="1" edge="1">
          <mxGeometry width="50" height="50" relative="1" as="geometry">
            <mxPoint x="876" y="1994" as="sourcePoint" />
            <mxPoint x="1699" y="1995" as="targetPoint" />
          </mxGeometry>
        </mxCell>
        <mxCell id="UCRnNolcWxTBBTJZz29h-50" value="" style="endArrow=classic;html=1;rounded=0;endSize=1;strokeWidth=2;strokeColor=#99FF33;" parent="1" edge="1">
          <mxGeometry width="50" height="50" relative="1" as="geometry">
            <mxPoint x="2051" y="1426" as="sourcePoint" />
            <mxPoint x="2099" y="1426" as="targetPoint" />
          </mxGeometry>
        </mxCell>
        <mxCell id="UCRnNolcWxTBBTJZz29h-51" value="" style="endArrow=classic;html=1;rounded=0;endSize=1;strokeWidth=2;strokeColor=#FFCC99;" parent="1" edge="1">
          <mxGeometry width="50" height="50" relative="1" as="geometry">
            <mxPoint x="1149" y="1436" as="sourcePoint" />
            <mxPoint x="2099" y="1436" as="targetPoint" />
          </mxGeometry>
        </mxCell>
        <mxCell id="UCRnNolcWxTBBTJZz29h-52" value="" style="endArrow=classic;html=1;rounded=0;endSize=1;strokeWidth=2;strokeColor=#00CCCC;" parent="1" edge="1">
          <mxGeometry width="50" height="50" relative="1" as="geometry">
            <mxPoint x="2051" y="1445" as="sourcePoint" />
            <mxPoint x="2099" y="1445" as="targetPoint" />
          </mxGeometry>
        </mxCell>
        <mxCell id="WR6nl4WWlnXiocAi59Dy-3" value="" style="endArrow=none;html=1;rounded=0;strokeWidth=2;strokeColor=#FFCC99;" parent="1" edge="1">
          <mxGeometry width="50" height="50" relative="1" as="geometry">
            <mxPoint x="843" y="1659" as="sourcePoint" />
            <mxPoint x="843" y="1335" as="targetPoint" />
          </mxGeometry>
        </mxCell>
        <mxCell id="WR6nl4WWlnXiocAi59Dy-4" value="" style="endArrow=none;html=1;rounded=0;strokeWidth=2;strokeColor=#FFCC99;" parent="1" edge="1">
          <mxGeometry width="50" height="50" relative="1" as="geometry">
            <mxPoint x="780" y="1658" as="sourcePoint" />
            <mxPoint x="843" y="1658" as="targetPoint" />
          </mxGeometry>
        </mxCell>
        <mxCell id="WR6nl4WWlnXiocAi59Dy-11" value="" style="endArrow=none;html=1;rounded=0;strokeWidth=2;strokeColor=#FFCC99;" parent="1" edge="1">
          <mxGeometry width="50" height="50" relative="1" as="geometry">
            <mxPoint x="780" y="1697" as="sourcePoint" />
            <mxPoint x="876" y="1697" as="targetPoint" />
          </mxGeometry>
        </mxCell>
        <mxCell id="WR6nl4WWlnXiocAi59Dy-12" value="" style="endArrow=none;html=1;rounded=0;strokeWidth=2;strokeColor=#FFCC99;" parent="1" edge="1">
          <mxGeometry width="50" height="50" relative="1" as="geometry">
            <mxPoint x="876" y="1698" as="sourcePoint" />
            <mxPoint x="876" y="1555" as="targetPoint" />
          </mxGeometry>
        </mxCell>
        <mxCell id="WR6nl4WWlnXiocAi59Dy-15" value="" style="endArrow=none;html=1;rounded=0;strokeWidth=2;strokeColor=#FFCC99;" parent="1" edge="1">
          <mxGeometry width="50" height="50" relative="1" as="geometry">
            <mxPoint x="780" y="1668" as="sourcePoint" />
            <mxPoint x="852" y="1668" as="targetPoint" />
          </mxGeometry>
        </mxCell>
        <mxCell id="WR6nl4WWlnXiocAi59Dy-17" value="" style="endArrow=none;html=1;rounded=0;strokeWidth=2;strokeColor=#FFCC99;" parent="1" edge="1">
          <mxGeometry width="50" height="50" relative="1" as="geometry">
            <mxPoint x="780" y="1678" as="sourcePoint" />
            <mxPoint x="861" y="1678" as="targetPoint" />
          </mxGeometry>
        </mxCell>
        <mxCell id="WR6nl4WWlnXiocAi59Dy-18" value="" style="endArrow=none;html=1;rounded=0;strokeWidth=2;strokeColor=#FFCC99;" parent="1" edge="1">
          <mxGeometry width="50" height="50" relative="1" as="geometry">
            <mxPoint x="780" y="1687" as="sourcePoint" />
            <mxPoint x="867" y="1687" as="targetPoint" />
          </mxGeometry>
        </mxCell>
        <mxCell id="WR6nl4WWlnXiocAi59Dy-19" value="" style="endArrow=none;html=1;rounded=0;strokeWidth=2;strokeColor=#FFCC99;" parent="1" edge="1">
          <mxGeometry width="50" height="50" relative="1" as="geometry">
            <mxPoint x="852" y="1669" as="sourcePoint" />
            <mxPoint x="852" y="1439" as="targetPoint" />
          </mxGeometry>
        </mxCell>
        <mxCell id="WR6nl4WWlnXiocAi59Dy-20" value="" style="endArrow=none;html=1;rounded=0;strokeWidth=2;strokeColor=#FFCC99;" parent="1" edge="1">
          <mxGeometry width="50" height="50" relative="1" as="geometry">
            <mxPoint x="860" y="1679" as="sourcePoint" />
            <mxPoint x="860" y="1448" as="targetPoint" />
          </mxGeometry>
        </mxCell>
        <mxCell id="WR6nl4WWlnXiocAi59Dy-21" value="" style="endArrow=none;html=1;rounded=0;strokeWidth=2;strokeColor=#FFCC99;" parent="1" edge="1">
          <mxGeometry width="50" height="50" relative="1" as="geometry">
            <mxPoint x="868" y="1688" as="sourcePoint" />
            <mxPoint x="868" y="1458" as="targetPoint" />
          </mxGeometry>
        </mxCell>
        <mxCell id="WR6nl4WWlnXiocAi59Dy-22" value="" style="endArrow=none;html=1;rounded=0;strokeWidth=2;strokeColor=#FFCC99;" parent="1" edge="1">
          <mxGeometry width="50" height="50" relative="1" as="geometry">
            <mxPoint x="851" y="1439" as="sourcePoint" />
            <mxPoint x="1140" y="1439" as="targetPoint" />
          </mxGeometry>
        </mxCell>
        <mxCell id="WR6nl4WWlnXiocAi59Dy-23" value="" style="endArrow=none;html=1;rounded=0;strokeWidth=2;strokeColor=#FFCC99;" parent="1" edge="1">
          <mxGeometry width="50" height="50" relative="1" as="geometry">
            <mxPoint x="1140" y="1440" as="sourcePoint" />
            <mxPoint x="1140" y="1324" as="targetPoint" />
          </mxGeometry>
        </mxCell>
        <mxCell id="WR6nl4WWlnXiocAi59Dy-24" value="" style="endArrow=none;html=1;rounded=0;strokeWidth=2;strokeColor=#FFCC99;" parent="1" edge="1">
          <mxGeometry width="50" height="50" relative="1" as="geometry">
            <mxPoint x="859" y="1448" as="sourcePoint" />
            <mxPoint x="1149" y="1448" as="targetPoint" />
          </mxGeometry>
        </mxCell>
        <mxCell id="WR6nl4WWlnXiocAi59Dy-25" value="" style="endArrow=none;html=1;rounded=0;strokeWidth=2;strokeColor=#FFCC99;" parent="1" edge="1">
          <mxGeometry width="50" height="50" relative="1" as="geometry">
            <mxPoint x="1149" y="1449" as="sourcePoint" />
            <mxPoint x="1149" y="1435" as="targetPoint" />
          </mxGeometry>
        </mxCell>
        <mxCell id="WR6nl4WWlnXiocAi59Dy-26" value="" style="endArrow=none;html=1;rounded=0;strokeWidth=2;strokeColor=#FFCC99;" parent="1" edge="1">
          <mxGeometry width="50" height="50" relative="1" as="geometry">
            <mxPoint x="1158" y="1445" as="sourcePoint" />
            <mxPoint x="1521" y="1445" as="targetPoint" />
          </mxGeometry>
        </mxCell>
        <mxCell id="WR6nl4WWlnXiocAi59Dy-27" value="" style="endArrow=none;html=1;rounded=0;strokeWidth=2;strokeColor=#FFCC99;" parent="1" edge="1">
          <mxGeometry width="50" height="50" relative="1" as="geometry">
            <mxPoint x="1584" y="1537" as="sourcePoint" />
            <mxPoint x="1584" y="1444" as="targetPoint" />
          </mxGeometry>
        </mxCell>
        <mxCell id="WR6nl4WWlnXiocAi59Dy-28" value="" style="endArrow=none;html=1;rounded=0;strokeWidth=2;strokeColor=#FFCC99;" parent="1" edge="1">
          <mxGeometry width="50" height="50" relative="1" as="geometry">
            <mxPoint x="1159" y="1458" as="sourcePoint" />
            <mxPoint x="1159" y="1444" as="targetPoint" />
          </mxGeometry>
        </mxCell>
        <mxCell id="WR6nl4WWlnXiocAi59Dy-29" value="" style="endArrow=none;html=1;rounded=0;strokeWidth=2;strokeColor=#FFCC99;" parent="1" edge="1">
          <mxGeometry width="50" height="50" relative="1" as="geometry">
            <mxPoint x="867" y="1459" as="sourcePoint" />
            <mxPoint x="1160" y="1459" as="targetPoint" />
          </mxGeometry>
        </mxCell>
        <mxCell id="WR6nl4WWlnXiocAi59Dy-32" value="" style="endArrow=none;html=1;rounded=0;strokeWidth=2;strokeColor=#FFFF66;" parent="1" edge="1">
          <mxGeometry width="50" height="50" relative="1" as="geometry">
            <mxPoint x="1500" y="1536" as="sourcePoint" />
            <mxPoint x="1575" y="1536" as="targetPoint" />
          </mxGeometry>
        </mxCell>
        <mxCell id="WR6nl4WWlnXiocAi59Dy-33" value="" style="endArrow=none;html=1;rounded=0;strokeWidth=2;strokeColor=#FFFF66;" parent="1" edge="1">
          <mxGeometry width="50" height="50" relative="1" as="geometry">
            <mxPoint x="1575" y="1537" as="sourcePoint" />
            <mxPoint x="1575" y="1334" as="targetPoint" />
          </mxGeometry>
        </mxCell>
        <mxCell id="WR6nl4WWlnXiocAi59Dy-34" value="" style="endArrow=none;html=1;rounded=0;strokeWidth=2;strokeColor=#FFCC99;" parent="1" edge="1">
          <mxGeometry width="50" height="50" relative="1" as="geometry">
            <mxPoint x="1520" y="1445" as="sourcePoint" />
            <mxPoint x="1584" y="1445" as="targetPoint" />
          </mxGeometry>
        </mxCell>
        <mxCell id="WR6nl4WWlnXiocAi59Dy-35" value="" style="endArrow=none;html=1;rounded=0;strokeWidth=2;strokeColor=#99FF33;" parent="1" edge="1">
          <mxGeometry width="50" height="50" relative="1" as="geometry">
            <mxPoint x="1901" y="1320" as="sourcePoint" />
            <mxPoint x="2052" y="1320" as="targetPoint" />
          </mxGeometry>
        </mxCell>
        <mxCell id="WR6nl4WWlnXiocAi59Dy-36" value="" style="endArrow=none;html=1;rounded=0;strokeWidth=2;strokeColor=#99FF33;" parent="1" edge="1">
          <mxGeometry width="50" height="50" relative="1" as="geometry">
            <mxPoint x="2051" y="1427" as="sourcePoint" />
            <mxPoint x="2051" y="1319" as="targetPoint" />
          </mxGeometry>
        </mxCell>
        <mxCell id="WR6nl4WWlnXiocAi59Dy-37" value="" style="endArrow=none;html=1;rounded=0;strokeWidth=2;strokeColor=#00CCCC;" parent="1" edge="1">
          <mxGeometry width="50" height="50" relative="1" as="geometry">
            <mxPoint x="1901" y="1536" as="sourcePoint" />
            <mxPoint x="2052" y="1536" as="targetPoint" />
          </mxGeometry>
        </mxCell>
        <mxCell id="WR6nl4WWlnXiocAi59Dy-38" value="" style="endArrow=none;html=1;rounded=0;strokeWidth=2;strokeColor=#00CCCC;" parent="1" edge="1">
          <mxGeometry width="50" height="50" relative="1" as="geometry">
            <mxPoint x="2052" y="1536" as="sourcePoint" />
            <mxPoint x="2052" y="1445" as="targetPoint" />
          </mxGeometry>
        </mxCell>
        <mxCell id="WR6nl4WWlnXiocAi59Dy-40" value="" style="endArrow=none;html=1;rounded=0;strokeWidth=2;strokeColor=#FFCC99;" parent="1" edge="1">
          <mxGeometry width="50" height="50" relative="1" as="geometry">
            <mxPoint x="780" y="1716" as="sourcePoint" />
            <mxPoint x="876" y="1716" as="targetPoint" />
          </mxGeometry>
        </mxCell>
        <mxCell id="WR6nl4WWlnXiocAi59Dy-41" value="" style="endArrow=none;html=1;rounded=0;strokeWidth=2;strokeColor=#FFCC99;" parent="1" edge="1">
          <mxGeometry width="50" height="50" relative="1" as="geometry">
            <mxPoint x="877" y="1994" as="sourcePoint" />
            <mxPoint x="877" y="1715" as="targetPoint" />
          </mxGeometry>
        </mxCell>
        <mxCell id="WR6nl4WWlnXiocAi59Dy-43" value="" style="shape=waypoint;sketch=0;fillStyle=solid;size=6;pointerEvents=1;points=[];fillColor=none;resizable=0;rotatable=0;perimeter=centerPerimeter;snapToPoint=1;strokeWidth=1;strokeColor=#FFFF66;" parent="1" vertex="1">
          <mxGeometry x="1565" y="1526" width="20" height="20" as="geometry" />
        </mxCell>
        <mxCell id="WR6nl4WWlnXiocAi59Dy-45" value="" style="endArrow=none;html=1;rounded=0;strokeWidth=2;strokeColor=#FFFF66;" parent="1" edge="1">
          <mxGeometry width="50" height="50" relative="1" as="geometry">
            <mxPoint x="1575" y="1987" as="sourcePoint" />
            <mxPoint x="1575" y="1538" as="targetPoint" />
          </mxGeometry>
        </mxCell>
        <mxCell id="WR6nl4WWlnXiocAi59Dy-46" value="" style="shape=waypoint;sketch=0;fillStyle=solid;size=6;pointerEvents=1;points=[];fillColor=none;resizable=0;rotatable=0;perimeter=centerPerimeter;snapToPoint=1;strokeWidth=1;strokeColor=#FFFF66;" parent="1" vertex="1">
          <mxGeometry x="1574" y="1536" width="20" height="20" as="geometry" />
        </mxCell>
        <mxCell id="WR6nl4WWlnXiocAi59Dy-47" value="" style="endArrow=none;html=1;rounded=0;strokeWidth=2;strokeColor=#FFFF66;" parent="1" edge="1">
          <mxGeometry width="50" height="50" relative="1" as="geometry">
            <mxPoint x="1584" y="1976" as="sourcePoint" />
            <mxPoint x="1584" y="1546" as="targetPoint" />
          </mxGeometry>
        </mxCell>
        <mxCell id="WR6nl4WWlnXiocAi59Dy-48" value="" style="shape=waypoint;sketch=0;fillStyle=solid;size=6;pointerEvents=1;points=[];fillColor=none;resizable=0;rotatable=0;perimeter=centerPerimeter;snapToPoint=1;strokeWidth=1;strokeColor=#FFFF66;" parent="1" vertex="1">
          <mxGeometry x="1574" y="1757" width="20" height="20" as="geometry" />
        </mxCell>
        <mxCell id="WR6nl4WWlnXiocAi59Dy-49" value="" style="shape=waypoint;sketch=0;fillStyle=solid;size=6;pointerEvents=1;points=[];fillColor=none;resizable=0;rotatable=0;perimeter=centerPerimeter;snapToPoint=1;strokeWidth=1;strokeColor=#FFFF66;" parent="1" vertex="1">
          <mxGeometry x="1565" y="1766" width="20" height="20" as="geometry" />
        </mxCell>
        <mxCell id="WR6nl4WWlnXiocAi59Dy-52" value="" style="endArrow=none;html=1;rounded=0;strokeWidth=2;strokeColor=#FFCC99;" parent="1" edge="1">
          <mxGeometry width="50" height="50" relative="1" as="geometry">
            <mxPoint x="780" y="1708" as="sourcePoint" />
            <mxPoint x="886" y="1708" as="targetPoint" />
          </mxGeometry>
        </mxCell>
        <mxCell id="WR6nl4WWlnXiocAi59Dy-54" value="" style="endArrow=none;html=1;rounded=0;strokeWidth=2;strokeColor=#FFCC99;" parent="1" edge="1">
          <mxGeometry width="50" height="50" relative="1" as="geometry">
            <mxPoint x="885" y="1786" as="sourcePoint" />
            <mxPoint x="885" y="1707" as="targetPoint" />
          </mxGeometry>
        </mxCell>
        <mxCell id="WR6nl4WWlnXiocAi59Dy-56" value="" style="endArrow=none;html=1;rounded=0;strokeWidth=2;strokeColor=#007FFF;" parent="1" edge="1">
          <mxGeometry width="50" height="50" relative="1" as="geometry">
            <mxPoint x="843" y="1256" as="sourcePoint" />
            <mxPoint x="2317" y="1256" as="targetPoint" />
          </mxGeometry>
        </mxCell>
        <mxCell id="WR6nl4WWlnXiocAi59Dy-57" value="" style="endArrow=none;html=1;rounded=0;strokeWidth=2;strokeColor=#007FFF;" parent="1" edge="1">
          <mxGeometry width="50" height="50" relative="1" as="geometry">
            <mxPoint x="843" y="1318" as="sourcePoint" />
            <mxPoint x="843" y="1255" as="targetPoint" />
          </mxGeometry>
        </mxCell>
        <mxCell id="WR6nl4WWlnXiocAi59Dy-58" value="" style="endArrow=none;html=1;rounded=0;strokeWidth=2;strokeColor=#007FFF;" parent="1" edge="1">
          <mxGeometry width="50" height="50" relative="1" as="geometry">
            <mxPoint x="2300" y="1431" as="sourcePoint" />
            <mxPoint x="2316" y="1431" as="targetPoint" />
          </mxGeometry>
        </mxCell>
        <mxCell id="WR6nl4WWlnXiocAi59Dy-59" value="" style="endArrow=none;html=1;rounded=0;strokeWidth=2;strokeColor=#007FFF;" parent="1" edge="1">
          <mxGeometry width="50" height="50" relative="1" as="geometry">
            <mxPoint x="2317" y="1432" as="sourcePoint" />
            <mxPoint x="2316" y="1256" as="targetPoint" />
          </mxGeometry>
        </mxCell>
        <mxCell id="WR6nl4WWlnXiocAi59Dy-60" value="" style="endArrow=none;html=1;rounded=0;strokeWidth=2;strokeColor=#007FFF;" parent="1" edge="1">
          <mxGeometry width="50" height="50" relative="1" as="geometry">
            <mxPoint x="1251" y="1566" as="sourcePoint" />
            <mxPoint x="1251" y="1256" as="targetPoint" />
          </mxGeometry>
        </mxCell>
        <mxCell id="WR6nl4WWlnXiocAi59Dy-61" value="" style="endArrow=none;html=1;rounded=0;strokeWidth=2;strokeColor=#666600;" parent="1" edge="1">
          <mxGeometry width="50" height="50" relative="1" as="geometry">
            <mxPoint x="1236" y="1576" as="sourcePoint" />
            <mxPoint x="1236" y="1316" as="targetPoint" />
          </mxGeometry>
        </mxCell>
        <mxCell id="WR6nl4WWlnXiocAi59Dy-62" value="" style="shape=waypoint;sketch=0;fillStyle=solid;size=6;pointerEvents=1;points=[];fillColor=none;resizable=0;rotatable=0;perimeter=centerPerimeter;snapToPoint=1;strokeColor=#666600;" parent="1" vertex="1">
          <mxGeometry x="1226" y="1306" width="20" height="20" as="geometry" />
        </mxCell>
        <mxCell id="WR6nl4WWlnXiocAi59Dy-63" value="" style="shape=waypoint;sketch=0;fillStyle=solid;size=6;pointerEvents=1;points=[];fillColor=none;resizable=0;rotatable=0;perimeter=centerPerimeter;snapToPoint=1;strokeColor=#007FFF;" parent="1" vertex="1">
          <mxGeometry x="1241" y="1246" width="20" height="20" as="geometry" />
        </mxCell>
        <mxCell id="HHthe8FDpFu81GJ2ntWf-2" value="" style="endArrow=none;html=1;rounded=0;strokeWidth=2;strokeColor=#FF9999;" parent="1" edge="1">
          <mxGeometry width="50" height="50" relative="1" as="geometry">
            <mxPoint x="380" y="1497" as="sourcePoint" />
            <mxPoint x="826" y="1497" as="targetPoint" />
          </mxGeometry>
        </mxCell>
        <mxCell id="HHthe8FDpFu81GJ2ntWf-3" value="" style="endArrow=none;html=1;rounded=0;strokeWidth=2;strokeColor=#FF9999;" parent="1" edge="1">
          <mxGeometry width="50" height="50" relative="1" as="geometry">
            <mxPoint x="380" y="1506" as="sourcePoint" />
            <mxPoint x="924" y="1506" as="targetPoint" />
          </mxGeometry>
        </mxCell>
        <mxCell id="HHthe8FDpFu81GJ2ntWf-4" value="" style="endArrow=none;html=1;rounded=0;strokeWidth=2;strokeColor=#FF9999;" parent="1" edge="1">
          <mxGeometry width="50" height="50" relative="1" as="geometry">
            <mxPoint x="380" y="1516" as="sourcePoint" />
            <mxPoint x="912" y="1516" as="targetPoint" />
          </mxGeometry>
        </mxCell>
        <mxCell id="HHthe8FDpFu81GJ2ntWf-5" value="" style="endArrow=none;html=1;rounded=0;strokeWidth=2;strokeColor=#FF9999;" parent="1" edge="1">
          <mxGeometry width="50" height="50" relative="1" as="geometry">
            <mxPoint x="380" y="1526" as="sourcePoint" />
            <mxPoint x="902" y="1526" as="targetPoint" />
          </mxGeometry>
        </mxCell>
        <mxCell id="HHthe8FDpFu81GJ2ntWf-6" value="" style="endArrow=none;html=1;rounded=0;strokeWidth=2;strokeColor=#FF9999;" parent="1" edge="1">
          <mxGeometry width="50" height="50" relative="1" as="geometry">
            <mxPoint x="825" y="1498" as="sourcePoint" />
            <mxPoint x="825" y="1246" as="targetPoint" />
          </mxGeometry>
        </mxCell>
        <mxCell id="HHthe8FDpFu81GJ2ntWf-7" value="" style="endArrow=none;html=1;rounded=0;strokeWidth=2;strokeColor=#FF9999;" parent="1" edge="1">
          <mxGeometry width="50" height="50" relative="1" as="geometry">
            <mxPoint x="825" y="1247" as="sourcePoint" />
            <mxPoint x="1661" y="1247" as="targetPoint" />
          </mxGeometry>
        </mxCell>
        <mxCell id="HHthe8FDpFu81GJ2ntWf-8" value="" style="endArrow=none;html=1;rounded=0;strokeWidth=2;strokeColor=#FF9999;" parent="1" edge="1">
          <mxGeometry width="1610" height="1746" relative="1" as="geometry">
            <mxPoint x="1660" y="1757" as="sourcePoint" />
            <mxPoint x="1660" y="1246" as="targetPoint" />
          </mxGeometry>
        </mxCell>
        <mxCell id="HHthe8FDpFu81GJ2ntWf-9" value="" style="shape=waypoint;sketch=0;fillStyle=solid;size=6;pointerEvents=1;points=[];fillColor=none;resizable=0;rotatable=0;perimeter=centerPerimeter;snapToPoint=1;strokeColor=#FF9999;" parent="HHthe8FDpFu81GJ2ntWf-8" vertex="1">
          <mxGeometry x="1650" y="1662" width="20" height="20" as="geometry" />
        </mxCell>
        <mxCell id="HHthe8FDpFu81GJ2ntWf-10" value="" style="endArrow=none;html=1;rounded=0;strokeWidth=2;strokeColor=#FF9999;" parent="1" edge="1">
          <mxGeometry width="50" height="50" relative="1" as="geometry">
            <mxPoint x="924" y="1585" as="sourcePoint" />
            <mxPoint x="924" y="1505" as="targetPoint" />
          </mxGeometry>
        </mxCell>
        <mxCell id="HHthe8FDpFu81GJ2ntWf-11" value="" style="endArrow=none;html=1;rounded=0;strokeWidth=2;strokeColor=#FF9999;" parent="1" edge="1">
          <mxGeometry width="50" height="50" relative="1" as="geometry">
            <mxPoint x="913" y="1595" as="sourcePoint" />
            <mxPoint x="913" y="1515" as="targetPoint" />
          </mxGeometry>
        </mxCell>
        <mxCell id="HHthe8FDpFu81GJ2ntWf-12" value="" style="endArrow=none;html=1;rounded=0;strokeWidth=2;strokeColor=#FF9999;" parent="1" edge="1">
          <mxGeometry width="50" height="50" relative="1" as="geometry">
            <mxPoint x="901" y="1604" as="sourcePoint" />
            <mxPoint x="901" y="1526" as="targetPoint" />
          </mxGeometry>
        </mxCell>
        <mxCell id="HHthe8FDpFu81GJ2ntWf-13" value="" style="endArrow=none;html=1;rounded=0;strokeWidth=2;strokeColor=#666600;" parent="1" edge="1">
          <mxGeometry width="50" height="50" relative="1" as="geometry">
            <mxPoint x="1236" y="1309" as="sourcePoint" />
            <mxPoint x="1236" y="1131" as="targetPoint" />
          </mxGeometry>
        </mxCell>
        <mxCell id="HHthe8FDpFu81GJ2ntWf-14" value="" style="endArrow=none;html=1;rounded=0;strokeWidth=2;strokeColor=#B5B500;" parent="1" edge="1">
          <mxGeometry width="50" height="50" relative="1" as="geometry">
            <mxPoint x="1900" y="1979" as="sourcePoint" />
            <mxPoint x="1927" y="1979" as="targetPoint" />
          </mxGeometry>
        </mxCell>
        <mxCell id="HHthe8FDpFu81GJ2ntWf-15" value="" style="endArrow=none;html=1;rounded=0;strokeWidth=2;strokeColor=#B5B500;" parent="1" edge="1">
          <mxGeometry width="50" height="50" relative="1" as="geometry">
            <mxPoint x="1926" y="2099" as="sourcePoint" />
            <mxPoint x="1926" y="1979" as="targetPoint" />
          </mxGeometry>
        </mxCell>
        <mxCell id="HHthe8FDpFu81GJ2ntWf-16" value="" style="endArrow=none;html=1;rounded=0;strokeWidth=2;strokeColor=#B5B500;" parent="1" edge="1">
          <mxGeometry width="50" height="50" relative="1" as="geometry">
            <mxPoint x="540" y="2099" as="sourcePoint" />
            <mxPoint x="1927" y="2099" as="targetPoint" />
          </mxGeometry>
        </mxCell>
        <mxCell id="HHthe8FDpFu81GJ2ntWf-17" value="" style="endArrow=classic;html=1;rounded=0;strokeWidth=2;endSize=1;strokeColor=#B5B500;" parent="1" edge="1">
          <mxGeometry width="50" height="50" relative="1" as="geometry">
            <mxPoint x="540" y="1686" as="sourcePoint" />
            <mxPoint x="579" y="1686" as="targetPoint" />
          </mxGeometry>
        </mxCell>
        <mxCell id="HHthe8FDpFu81GJ2ntWf-18" value="" style="endArrow=none;html=1;rounded=0;strokeWidth=2;strokeColor=#B5B500;" parent="1" edge="1">
          <mxGeometry width="50" height="50" relative="1" as="geometry">
            <mxPoint x="540" y="2100" as="sourcePoint" />
            <mxPoint x="540" y="1685" as="targetPoint" />
          </mxGeometry>
        </mxCell>
        <mxCell id="HHthe8FDpFu81GJ2ntWf-21" value="" style="endArrow=none;html=1;rounded=0;strokeWidth=2;strokeColor=#FF3399;" parent="1" edge="1">
          <mxGeometry width="50" height="50" relative="1" as="geometry">
            <mxPoint x="144" y="1502" as="sourcePoint" />
            <mxPoint x="144" y="1072" as="targetPoint" />
          </mxGeometry>
        </mxCell>
        <mxCell id="HHthe8FDpFu81GJ2ntWf-22" value="" style="endArrow=none;html=1;rounded=0;strokeWidth=2;strokeColor=#FF3399;" parent="1" edge="1">
          <mxGeometry width="50" height="50" relative="1" as="geometry">
            <mxPoint x="144" y="1073" as="sourcePoint" />
            <mxPoint x="1512" y="1073" as="targetPoint" />
          </mxGeometry>
        </mxCell>
        <mxCell id="HHthe8FDpFu81GJ2ntWf-23" value="" style="endArrow=none;html=1;rounded=0;strokeWidth=2;strokeColor=#FF3399;" parent="1" edge="1">
          <mxGeometry width="50" height="50" relative="1" as="geometry">
            <mxPoint x="1490" y="1132" as="sourcePoint" />
            <mxPoint x="1512" y="1132" as="targetPoint" />
          </mxGeometry>
        </mxCell>
        <mxCell id="HHthe8FDpFu81GJ2ntWf-24" value="" style="endArrow=none;html=1;rounded=0;strokeWidth=2;strokeColor=#FF3399;" parent="1" edge="1">
          <mxGeometry width="50" height="50" relative="1" as="geometry">
            <mxPoint x="1512" y="1133" as="sourcePoint" />
            <mxPoint x="1512" y="1072" as="targetPoint" />
          </mxGeometry>
        </mxCell>
        <mxCell id="HHthe8FDpFu81GJ2ntWf-38" value="" style="endArrow=none;html=1;rounded=0;strokeWidth=2;strokeColor=#00FFFF;" parent="1" edge="1">
          <mxGeometry width="50" height="50" relative="1" as="geometry">
            <mxPoint x="1900" y="1767" as="sourcePoint" />
            <mxPoint x="2421" y="1767" as="targetPoint" />
          </mxGeometry>
        </mxCell>
        <mxCell id="HHthe8FDpFu81GJ2ntWf-39" value="" style="endArrow=none;html=1;rounded=0;strokeWidth=2;strokeColor=#00FFFF;" parent="1" edge="1">
          <mxGeometry width="50" height="50" relative="1" as="geometry">
            <mxPoint x="1900" y="1777" as="sourcePoint" />
            <mxPoint x="2433" y="1777" as="targetPoint" />
          </mxGeometry>
        </mxCell>
        <mxCell id="HHthe8FDpFu81GJ2ntWf-40" value="" style="endArrow=none;html=1;rounded=0;strokeWidth=2;strokeColor=#00FFFF;" parent="1" edge="1">
          <mxGeometry width="50" height="50" relative="1" as="geometry">
            <mxPoint x="1900" y="1787" as="sourcePoint" />
            <mxPoint x="2445" y="1787" as="targetPoint" />
          </mxGeometry>
        </mxCell>
        <mxCell id="HHthe8FDpFu81GJ2ntWf-41" value="" style="endArrow=none;html=1;rounded=0;strokeWidth=2;strokeColor=#00FFFF;" parent="1" edge="1">
          <mxGeometry width="50" height="50" relative="1" as="geometry">
            <mxPoint x="1900" y="1796" as="sourcePoint" />
            <mxPoint x="2457" y="1796" as="targetPoint" />
          </mxGeometry>
        </mxCell>
        <mxCell id="HHthe8FDpFu81GJ2ntWf-53" value="" style="endArrow=none;html=1;rounded=0;strokeWidth=2;strokeColor=#B57E51;" parent="1" edge="1">
          <mxGeometry width="50" height="50" relative="1" as="geometry">
            <mxPoint x="150" y="1796" as="sourcePoint" />
            <mxPoint x="1638" y="1796" as="targetPoint" />
          </mxGeometry>
        </mxCell>
        <mxCell id="HHthe8FDpFu81GJ2ntWf-54" value="&lt;div style=&quot;font-size: 16px;&quot; align=&quot;left&quot;&gt;&lt;font style=&quot;font-size: 16px;&quot;&gt;&lt;b&gt;&lt;font style=&quot;font-size: 16px;&quot;&gt;&lt;font style=&quot;font-size: 16px;&quot;&gt;&lt;b&gt;&lt;font style=&quot;font-size: 16px;&quot;&gt;ram_q(31:0)&lt;/font&gt;&lt;/b&gt;&lt;/font&gt;&lt;/font&gt;&lt;/b&gt;&lt;/font&gt;&lt;/div&gt;" style="text;html=1;strokeColor=none;fillColor=none;align=left;verticalAlign=middle;whiteSpace=wrap;rounded=0;" parent="1" vertex="1">
          <mxGeometry x="-223" y="1042" width="96" height="30" as="geometry" />
        </mxCell>
        <mxCell id="HHthe8FDpFu81GJ2ntWf-58" value="" style="endArrow=classic;html=1;rounded=0;strokeWidth=2;strokeColor=#B57E51;endSize=1;" parent="1" edge="1">
          <mxGeometry width="50" height="50" relative="1" as="geometry">
            <mxPoint x="1057" y="730" as="sourcePoint" />
            <mxPoint x="1104" y="730" as="targetPoint" />
          </mxGeometry>
        </mxCell>
        <mxCell id="HHthe8FDpFu81GJ2ntWf-59" value="" style="endArrow=classic;html=1;rounded=0;strokeWidth=2;strokeColor=#00FFFF;endSize=1;" parent="1" edge="1">
          <mxGeometry width="50" height="50" relative="1" as="geometry">
            <mxPoint x="789" y="737" as="sourcePoint" />
            <mxPoint x="836" y="737" as="targetPoint" />
          </mxGeometry>
        </mxCell>
        <mxCell id="HHthe8FDpFu81GJ2ntWf-60" value="" style="endArrow=classic;html=1;rounded=0;strokeWidth=2;strokeColor=#00FFFF;endSize=1;" parent="1" edge="1">
          <mxGeometry width="50" height="50" relative="1" as="geometry">
            <mxPoint x="777" y="747" as="sourcePoint" />
            <mxPoint x="836" y="747" as="targetPoint" />
          </mxGeometry>
        </mxCell>
        <mxCell id="HHthe8FDpFu81GJ2ntWf-61" value="" style="endArrow=classic;html=1;rounded=0;strokeWidth=2;strokeColor=#00FFFF;endSize=1;" parent="1" edge="1">
          <mxGeometry width="50" height="50" relative="1" as="geometry">
            <mxPoint x="777" y="756" as="sourcePoint" />
            <mxPoint x="836" y="756" as="targetPoint" />
          </mxGeometry>
        </mxCell>
        <mxCell id="HHthe8FDpFu81GJ2ntWf-62" value="" style="endArrow=classic;html=1;rounded=0;strokeWidth=2;strokeColor=#00FFFF;endSize=1;" parent="1" edge="1">
          <mxGeometry width="50" height="50" relative="1" as="geometry">
            <mxPoint x="789" y="766" as="sourcePoint" />
            <mxPoint x="836" y="766" as="targetPoint" />
          </mxGeometry>
        </mxCell>
        <mxCell id="HHthe8FDpFu81GJ2ntWf-63" value="&lt;div style=&quot;font-size: 16px;&quot; align=&quot;right&quot;&gt;&lt;font style=&quot;font-size: 16px;&quot;&gt;&lt;b&gt;&lt;font style=&quot;font-size: 16px;&quot;&gt;&lt;font style=&quot;font-size: 16px;&quot;&gt;&lt;b&gt;&lt;font style=&quot;font-size: 16px;&quot;&gt;core_addr_read&lt;/font&gt;&lt;/b&gt;&lt;/font&gt;&lt;/font&gt;&lt;/b&gt;&lt;/font&gt;&lt;/div&gt;&lt;div style=&quot;font-size: 16px;&quot; align=&quot;right&quot;&gt;&lt;font style=&quot;font-size: 16px;&quot;&gt;&lt;b&gt;&lt;font style=&quot;font-size: 16px;&quot;&gt;&lt;font style=&quot;font-size: 16px;&quot;&gt;&lt;b&gt;&lt;font style=&quot;font-size: 16px;&quot;&gt;core_addr_write&lt;/font&gt;&lt;/b&gt;&lt;/font&gt;&lt;br&gt;&lt;/font&gt;&lt;/b&gt;&lt;/font&gt;&lt;/div&gt;&lt;div style=&quot;font-size: 16px;&quot; align=&quot;right&quot;&gt;&lt;font style=&quot;font-size: 16px;&quot;&gt;&lt;b&gt;&lt;font style=&quot;font-size: 16px;&quot;&gt;core_write_enable&lt;/font&gt;&lt;/b&gt;&lt;/font&gt;&lt;/div&gt;&lt;div style=&quot;font-size: 16px;&quot; align=&quot;right&quot;&gt;&lt;font style=&quot;font-size: 16px;&quot;&gt;&lt;b&gt;&lt;font style=&quot;font-size: 16px;&quot;&gt;core_data_write&lt;/font&gt;&lt;/b&gt;&lt;/font&gt;&lt;/div&gt;&lt;div style=&quot;font-size: 16px;&quot; align=&quot;right&quot;&gt;&lt;font style=&quot;font-size: 16px;&quot;&gt;&lt;b&gt;&lt;font style=&quot;font-size: 16px;&quot;&gt;core_byte_enable&lt;br&gt;&lt;/font&gt;&lt;/b&gt;&lt;/font&gt;&lt;/div&gt;" style="text;html=1;strokeColor=none;fillColor=none;align=right;verticalAlign=middle;whiteSpace=wrap;rounded=0;" parent="1" vertex="1">
          <mxGeometry x="587" y="708" width="145" height="99" as="geometry" />
        </mxCell>
        <mxCell id="HHthe8FDpFu81GJ2ntWf-64" value="" style="endArrow=none;html=1;rounded=0;strokeWidth=2;strokeColor=#00FFFF;" parent="1" edge="1">
          <mxGeometry width="50" height="50" relative="1" as="geometry">
            <mxPoint x="732" y="723" as="sourcePoint" />
            <mxPoint x="789" y="723" as="targetPoint" />
          </mxGeometry>
        </mxCell>
        <mxCell id="HHthe8FDpFu81GJ2ntWf-65" value="" style="endArrow=none;html=1;rounded=0;strokeWidth=2;strokeColor=#00FFFF;" parent="1" edge="1">
          <mxGeometry width="50" height="50" relative="1" as="geometry">
            <mxPoint x="732" y="780" as="sourcePoint" />
            <mxPoint x="789" y="780" as="targetPoint" />
          </mxGeometry>
        </mxCell>
        <mxCell id="HHthe8FDpFu81GJ2ntWf-66" value="" style="endArrow=none;html=1;rounded=0;strokeWidth=2;strokeColor=#00FFFF;" parent="1" edge="1">
          <mxGeometry width="50" height="50" relative="1" as="geometry">
            <mxPoint x="732" y="762" as="sourcePoint" />
            <mxPoint x="777" y="762" as="targetPoint" />
          </mxGeometry>
        </mxCell>
        <mxCell id="HHthe8FDpFu81GJ2ntWf-67" value="" style="endArrow=none;html=1;rounded=0;strokeWidth=2;strokeColor=#00FFFF;" parent="1" edge="1">
          <mxGeometry width="50" height="50" relative="1" as="geometry">
            <mxPoint x="732" y="742" as="sourcePoint" />
            <mxPoint x="777" y="742" as="targetPoint" />
          </mxGeometry>
        </mxCell>
        <mxCell id="HHthe8FDpFu81GJ2ntWf-68" value="" style="endArrow=none;html=1;rounded=0;strokeWidth=2;strokeColor=#00FFFF;" parent="1" edge="1">
          <mxGeometry width="50" height="50" relative="1" as="geometry">
            <mxPoint x="789" y="738" as="sourcePoint" />
            <mxPoint x="789" y="722" as="targetPoint" />
          </mxGeometry>
        </mxCell>
        <mxCell id="HHthe8FDpFu81GJ2ntWf-69" value="" style="endArrow=none;html=1;rounded=0;strokeWidth=2;strokeColor=#00FFFF;" parent="1" edge="1">
          <mxGeometry width="50" height="50" relative="1" as="geometry">
            <mxPoint x="789" y="781" as="sourcePoint" />
            <mxPoint x="789" y="765" as="targetPoint" />
          </mxGeometry>
        </mxCell>
        <mxCell id="HHthe8FDpFu81GJ2ntWf-70" value="" style="endArrow=none;html=1;rounded=0;strokeWidth=2;strokeColor=#00FFFF;" parent="1" edge="1">
          <mxGeometry width="50" height="50" relative="1" as="geometry">
            <mxPoint x="777" y="763" as="sourcePoint" />
            <mxPoint x="777" y="755" as="targetPoint" />
          </mxGeometry>
        </mxCell>
        <mxCell id="HHthe8FDpFu81GJ2ntWf-71" value="" style="endArrow=none;html=1;rounded=0;strokeWidth=2;strokeColor=#00FFFF;" parent="1" edge="1">
          <mxGeometry width="50" height="50" relative="1" as="geometry">
            <mxPoint x="777" y="748" as="sourcePoint" />
            <mxPoint x="777" y="741" as="targetPoint" />
          </mxGeometry>
        </mxCell>
        <mxCell id="Z635ZdNETE6uqt0j0ldt-1" value="" style="endArrow=none;html=1;rounded=0;strokeWidth=2;strokeColor=#00FFFF;" parent="1" edge="1">
          <mxGeometry width="50" height="50" relative="1" as="geometry">
            <mxPoint x="1900" y="1806" as="sourcePoint" />
            <mxPoint x="2469" y="1806" as="targetPoint" />
          </mxGeometry>
        </mxCell>
        <mxCell id="Z635ZdNETE6uqt0j0ldt-3" value="" style="endArrow=none;html=1;rounded=0;strokeWidth=2;strokeColor=#00FFFF;" parent="1" edge="1">
          <mxGeometry width="50" height="50" relative="1" as="geometry">
            <mxPoint x="732" y="799" as="sourcePoint" />
            <mxPoint x="801" y="799" as="targetPoint" />
          </mxGeometry>
        </mxCell>
        <mxCell id="Z635ZdNETE6uqt0j0ldt-4" value="" style="endArrow=classic;html=1;rounded=0;strokeWidth=2;strokeColor=#00FFFF;endSize=1;" parent="1" edge="1">
          <mxGeometry width="50" height="50" relative="1" as="geometry">
            <mxPoint x="800" y="776" as="sourcePoint" />
            <mxPoint x="836" y="776" as="targetPoint" />
          </mxGeometry>
        </mxCell>
        <mxCell id="Z635ZdNETE6uqt0j0ldt-5" value="" style="endArrow=none;html=1;rounded=0;strokeWidth=2;strokeColor=#00FFFF;" parent="1" edge="1">
          <mxGeometry width="50" height="50" relative="1" as="geometry">
            <mxPoint x="801" y="800" as="sourcePoint" />
            <mxPoint x="801" y="775" as="targetPoint" />
          </mxGeometry>
        </mxCell>
        <mxCell id="jx6rWYBqz_MLAkpBDeUV-1" value="" style="endArrow=none;html=1;rounded=0;strokeWidth=2;strokeColor=#00FFFF;movable=1;resizable=1;rotatable=1;deletable=1;editable=1;locked=0;connectable=1;" parent="1" edge="1">
          <mxGeometry width="50" height="50" relative="1" as="geometry">
            <mxPoint x="1900" y="1758" as="sourcePoint" />
            <mxPoint x="1926" y="1758" as="targetPoint" />
          </mxGeometry>
        </mxCell>
        <mxCell id="jx6rWYBqz_MLAkpBDeUV-3" value="" style="endArrow=classic;html=1;rounded=0;strokeWidth=2;endSize=1;strokeColor=#00FFFF;" parent="1" edge="1">
          <mxGeometry width="50" height="50" relative="1" as="geometry">
            <mxPoint x="1253" y="1613" as="sourcePoint" />
            <mxPoint x="1299" y="1613" as="targetPoint" />
          </mxGeometry>
        </mxCell>
        <mxCell id="jx6rWYBqz_MLAkpBDeUV-4" value="" style="endArrow=none;html=1;rounded=0;strokeWidth=2;strokeColor=#00FFFF;" parent="1" edge="1">
          <mxGeometry width="50" height="50" relative="1" as="geometry">
            <mxPoint x="1253" y="1647" as="sourcePoint" />
            <mxPoint x="1253" y="1612" as="targetPoint" />
          </mxGeometry>
        </mxCell>
        <mxCell id="jx6rWYBqz_MLAkpBDeUV-5" value="" style="endArrow=none;html=1;rounded=0;strokeWidth=2;strokeColor=#00FFFF;" parent="1" edge="1">
          <mxGeometry width="50" height="50" relative="1" as="geometry">
            <mxPoint x="1252" y="1648" as="sourcePoint" />
            <mxPoint x="1925" y="1649" as="targetPoint" />
          </mxGeometry>
        </mxCell>
        <mxCell id="jx6rWYBqz_MLAkpBDeUV-7" value="" style="endArrow=none;html=1;rounded=0;strokeWidth=2;strokeColor=#00FFFF;" parent="1" edge="1">
          <mxGeometry width="50" height="50" relative="1" as="geometry">
            <mxPoint x="1925" y="1757" as="sourcePoint" />
            <mxPoint x="1925" y="1648" as="targetPoint" />
          </mxGeometry>
        </mxCell>
        <mxCell id="lknKL6QuMEld9YmjTeJl-1" value="&amp;nbsp;" style="rounded=0;whiteSpace=wrap;html=1;dashed=1;strokeWidth=2;fillColor=#BABABA;fillStyle=solid;opacity=20;" parent="1" vertex="1">
          <mxGeometry x="1400" y="630" width="544" height="234" as="geometry" />
        </mxCell>
        <mxCell id="lknKL6QuMEld9YmjTeJl-2" value="" style="rounded=0;whiteSpace=wrap;html=1;fillColor=none;strokeColor=#44ABA4;strokeWidth=2;fontColor=#000000;" parent="1" vertex="1">
          <mxGeometry x="1631" y="697" width="220" height="140" as="geometry" />
        </mxCell>
        <mxCell id="lknKL6QuMEld9YmjTeJl-3" value="&lt;div style=&quot;font-size: 8px;&quot; align=&quot;left&quot;&gt;&lt;font style=&quot;font-size: 8px;&quot;&gt;clk&lt;/font&gt;&lt;/div&gt;&lt;div style=&quot;font-size: 8px;&quot; align=&quot;left&quot;&gt;addr (integer)&lt;br&gt;&lt;/div&gt;&lt;div style=&quot;font-size: 8px;&quot; align=&quot;left&quot;&gt;&lt;font style=&quot;font-size: 8px;&quot;&gt;wdata(31:0)&lt;/font&gt;&lt;/div&gt;&lt;div style=&quot;font-size: 8px;&quot; align=&quot;left&quot;&gt;&lt;font style=&quot;font-size: 8px;&quot;&gt;i_we&lt;br&gt;&lt;/font&gt;&lt;/div&gt;" style="text;html=1;strokeColor=none;fillColor=none;align=left;verticalAlign=middle;whiteSpace=wrap;rounded=0;fontColor=#000000;" parent="1" vertex="1">
          <mxGeometry x="1632" y="721" width="56" height="44" as="geometry" />
        </mxCell>
        <mxCell id="lknKL6QuMEld9YmjTeJl-4" value="GPIO" style="text;html=1;strokeColor=none;fillColor=none;align=center;verticalAlign=middle;whiteSpace=wrap;rounded=0;fontColor=#000000;" parent="1" vertex="1">
          <mxGeometry x="1631" y="701" width="220" height="20" as="geometry" />
        </mxCell>
        <mxCell id="lknKL6QuMEld9YmjTeJl-5" value="&lt;div style=&quot;font-size: 8px;&quot; align=&quot;right&quot;&gt;&lt;font style=&quot;font-size: 8px;&quot;&gt;gpio(7:0)&lt;/font&gt;&lt;/div&gt;" style="text;html=1;strokeColor=none;fillColor=none;align=right;verticalAlign=middle;whiteSpace=wrap;rounded=0;fontColor=#000000;" parent="1" vertex="1">
          <mxGeometry x="1814" y="724" width="36" height="12" as="geometry" />
        </mxCell>
        <mxCell id="lknKL6QuMEld9YmjTeJl-6" value="&lt;font style=&quot;font-size: 16px;&quot;&gt;&lt;b&gt;&lt;font style=&quot;font-size: 16px;&quot;&gt;gpio&lt;/font&gt;&lt;/b&gt;&lt;/font&gt;" style="text;html=1;strokeColor=none;fillColor=none;align=center;verticalAlign=middle;whiteSpace=wrap;rounded=0;" parent="1" vertex="1">
          <mxGeometry x="1899" y="716" width="35" height="24" as="geometry" />
        </mxCell>
        <mxCell id="lknKL6QuMEld9YmjTeJl-7" value="" style="endArrow=classic;html=1;rounded=0;strokeWidth=2;strokeColor=#44ABA4;endSize=1;" parent="1" edge="1">
          <mxGeometry width="50" height="50" relative="1" as="geometry">
            <mxPoint x="1851" y="732" as="sourcePoint" />
            <mxPoint x="1898" y="732" as="targetPoint" />
          </mxGeometry>
        </mxCell>
        <mxCell id="lknKL6QuMEld9YmjTeJl-8" value="" style="endArrow=classic;html=1;rounded=0;strokeWidth=2;strokeColor=#00FFFF;endSize=1;" parent="1" edge="1">
          <mxGeometry width="50" height="50" relative="1" as="geometry">
            <mxPoint x="1583" y="740" as="sourcePoint" />
            <mxPoint x="1630" y="740" as="targetPoint" />
          </mxGeometry>
        </mxCell>
        <mxCell id="lknKL6QuMEld9YmjTeJl-9" value="" style="endArrow=classic;html=1;rounded=0;strokeWidth=2;strokeColor=#00FFFF;endSize=1;" parent="1" edge="1">
          <mxGeometry width="50" height="50" relative="1" as="geometry">
            <mxPoint x="1583" y="749" as="sourcePoint" />
            <mxPoint x="1630" y="749" as="targetPoint" />
          </mxGeometry>
        </mxCell>
        <mxCell id="lknKL6QuMEld9YmjTeJl-12" value="&lt;div style=&quot;font-size: 16px;&quot; align=&quot;right&quot;&gt;&lt;font style=&quot;font-size: 16px;&quot;&gt;&lt;b&gt;&lt;font style=&quot;font-size: 16px;&quot;&gt;&lt;font style=&quot;font-size: 16px;&quot;&gt;&lt;b&gt;&lt;font style=&quot;font-size: 16px;&quot;&gt;core_addr_write&lt;/font&gt;&lt;/b&gt;&lt;/font&gt;&lt;/font&gt;&lt;/b&gt;&lt;/font&gt;&lt;/div&gt;&lt;div style=&quot;font-size: 16px;&quot; align=&quot;right&quot;&gt;&lt;font style=&quot;font-size: 16px;&quot;&gt;&lt;b&gt;&lt;font style=&quot;font-size: 16px;&quot;&gt;&lt;font style=&quot;font-size: 16px;&quot;&gt;&lt;b&gt;&lt;font style=&quot;font-size: 16px;&quot;&gt;core_data_write&lt;/font&gt;&lt;/b&gt;&lt;/font&gt;&lt;/font&gt;&lt;/b&gt;&lt;/font&gt;&lt;/div&gt;&lt;div style=&quot;font-size: 16px;&quot; align=&quot;right&quot;&gt;&lt;font style=&quot;font-size: 16px;&quot;&gt;&lt;b&gt;&lt;font style=&quot;font-size: 16px;&quot;&gt;&lt;font style=&quot;font-size: 16px;&quot;&gt;&lt;b&gt;&lt;font style=&quot;font-size: 16px;&quot;&gt;core_write_enable&lt;br&gt;&lt;/font&gt;&lt;/b&gt;&lt;/font&gt;&lt;/font&gt;&lt;/b&gt;&lt;/font&gt;&lt;/div&gt;" style="text;html=1;strokeColor=none;fillColor=none;align=right;verticalAlign=middle;whiteSpace=wrap;rounded=0;" parent="1" vertex="1">
          <mxGeometry x="1399" y="719" width="147" height="63" as="geometry" />
        </mxCell>
        <mxCell id="lknKL6QuMEld9YmjTeJl-13" value="" style="endArrow=none;html=1;rounded=0;strokeWidth=2;strokeColor=#00FFFF;" parent="1" edge="1">
          <mxGeometry width="50" height="50" relative="1" as="geometry">
            <mxPoint x="1547" y="735" as="sourcePoint" />
            <mxPoint x="1583" y="735" as="targetPoint" />
          </mxGeometry>
        </mxCell>
        <mxCell id="lknKL6QuMEld9YmjTeJl-16" value="" style="endArrow=none;html=1;rounded=0;strokeWidth=2;strokeColor=#00FFFF;" parent="1" edge="1">
          <mxGeometry width="50" height="50" relative="1" as="geometry">
            <mxPoint x="1547" y="753" as="sourcePoint" />
            <mxPoint x="1583" y="753" as="targetPoint" />
          </mxGeometry>
        </mxCell>
        <mxCell id="2V4Jv0Zd4fic7rHtye02-1" value="" style="endArrow=none;html=1;rounded=0;strokeWidth=2;strokeColor=#00FFFF;" parent="1" edge="1">
          <mxGeometry width="50" height="50" relative="1" as="geometry">
            <mxPoint x="1583" y="741" as="sourcePoint" />
            <mxPoint x="1583" y="734" as="targetPoint" />
          </mxGeometry>
        </mxCell>
        <mxCell id="2V4Jv0Zd4fic7rHtye02-2" value="" style="endArrow=none;html=1;rounded=0;strokeWidth=2;strokeColor=#00FFFF;" parent="1" edge="1">
          <mxGeometry width="50" height="50" relative="1" as="geometry">
            <mxPoint x="1583" y="754" as="sourcePoint" />
            <mxPoint x="1583" y="748" as="targetPoint" />
          </mxGeometry>
        </mxCell>
        <mxCell id="k1cbnF_5yYTtlvTHfuMY-7" value="" style="endArrow=none;html=1;rounded=0;edgeStyle=orthogonalEdgeStyle;strokeColor=#B57E51;strokeWidth=2;" parent="1" edge="1">
          <mxGeometry width="50" height="50" relative="1" as="geometry">
            <mxPoint x="151" y="1796" as="sourcePoint" />
            <mxPoint x="128" y="1061" as="targetPoint" />
          </mxGeometry>
        </mxCell>
        <mxCell id="k1cbnF_5yYTtlvTHfuMY-12" value="" style="line;strokeWidth=2;fillColor=#e1d5e7;align=left;verticalAlign=middle;spacingTop=-1;spacingLeft=3;spacingRight=3;rotatable=0;labelPosition=right;points=[];portConstraint=eastwest;strokeColor=#B57E51;" parent="1" vertex="1">
          <mxGeometry x="96" y="1056" width="33" height="8" as="geometry" />
        </mxCell>
        <mxCell id="k1cbnF_5yYTtlvTHfuMY-18" value="" style="shape=partialRectangle;whiteSpace=wrap;html=1;bottom=0;right=0;fillColor=none;strokeWidth=2;strokeColor=#00FFFF;" parent="1" vertex="1">
          <mxGeometry x="2457" y="1095" width="46" height="701" as="geometry" />
        </mxCell>
        <mxCell id="k1cbnF_5yYTtlvTHfuMY-19" value="" style="shape=partialRectangle;whiteSpace=wrap;html=1;bottom=0;right=0;fillColor=none;strokeWidth=2;strokeColor=#00FFFF;" parent="1" vertex="1">
          <mxGeometry x="2469" y="1113" width="38" height="693" as="geometry" />
        </mxCell>
        <mxCell id="k1cbnF_5yYTtlvTHfuMY-20" value="" style="shape=partialRectangle;whiteSpace=wrap;html=1;bottom=0;right=0;fillColor=none;strokeWidth=2;strokeColor=#00FFFF;" parent="1" vertex="1">
          <mxGeometry x="2445" y="1076" width="35" height="711" as="geometry" />
        </mxCell>
        <mxCell id="k1cbnF_5yYTtlvTHfuMY-21" value="" style="shape=partialRectangle;whiteSpace=wrap;html=1;bottom=0;right=0;fillColor=none;strokeWidth=2;strokeColor=#00FFFF;" parent="1" vertex="1">
          <mxGeometry x="2433" y="1056" width="50" height="721" as="geometry" />
        </mxCell>
        <mxCell id="k1cbnF_5yYTtlvTHfuMY-22" value="" style="shape=partialRectangle;whiteSpace=wrap;html=1;bottom=0;right=0;fillColor=none;strokeWidth=2;strokeColor=#00FFFF;" parent="1" vertex="1">
          <mxGeometry x="2421" y="1038" width="111" height="729" as="geometry" />
        </mxCell>
        <mxCell id="k1cbnF_5yYTtlvTHfuMY-34" value="&amp;nbsp;" style="text;whiteSpace=wrap;html=1;" parent="1" vertex="1">
          <mxGeometry x="810" y="1257" width="24" height="30" as="geometry" />
        </mxCell>
        <mxCell id="k1cbnF_5yYTtlvTHfuMY-39" value="&lt;font style=&quot;font-size: 26px;&quot;&gt;&lt;b&gt;RAM&lt;/b&gt;&lt;/font&gt;" style="text;html=1;strokeColor=none;fillColor=none;align=center;verticalAlign=middle;whiteSpace=wrap;rounded=0;fontColor=#000000;" parent="1" vertex="1">
          <mxGeometry x="860" y="649" width="60" height="20" as="geometry" />
        </mxCell>
        <mxCell id="k1cbnF_5yYTtlvTHfuMY-40" value="&lt;font style=&quot;font-size: 26px;&quot;&gt;&lt;b&gt;GPIO&lt;/b&gt;&lt;/font&gt;" style="text;html=1;strokeColor=none;fillColor=none;align=center;verticalAlign=middle;whiteSpace=wrap;rounded=0;fontColor=#000000;" parent="1" vertex="1">
          <mxGeometry x="1652" y="651" width="60" height="20" as="geometry" />
        </mxCell>
        <mxCell id="k1cbnF_5yYTtlvTHfuMY-41" value="&lt;div style=&quot;font-size: 16px;&quot; align=&quot;left&quot;&gt;&lt;b&gt;&lt;font style=&quot;font-size: 16px;&quot;&gt;clk&lt;/font&gt;&lt;/b&gt;&lt;/div&gt;&lt;div style=&quot;font-size: 16px;&quot; align=&quot;left&quot;&gt;&lt;b&gt;&lt;font style=&quot;font-size: 16px;&quot;&gt;core_data_read(31:0)&lt;/font&gt;&lt;/b&gt;&lt;/div&gt;" style="text;html=1;strokeColor=none;fillColor=none;align=left;verticalAlign=middle;whiteSpace=wrap;rounded=0;fontColor=#000000;" parent="1" vertex="1">
          <mxGeometry x="-68" y="1026" width="165" height="44" as="geometry" />
        </mxCell>
        <mxCell id="k1cbnF_5yYTtlvTHfuMY-43" value="" style="endArrow=classic;html=1;rounded=0;strokeWidth=2;strokeColor=#B57E51;endSize=1;" parent="1" edge="1">
          <mxGeometry width="50" height="50" relative="1" as="geometry">
            <mxPoint x="-128" y="1060" as="sourcePoint" />
            <mxPoint x="-81" y="1060" as="targetPoint" />
          </mxGeometry>
        </mxCell>
        <mxCell id="k1cbnF_5yYTtlvTHfuMY-46" value="&lt;div style=&quot;font-size: 26px;&quot; align=&quot;left&quot;&gt;&lt;font style=&quot;font-size: 26px;&quot;&gt;&lt;b&gt;&lt;font style=&quot;font-size: 26px;&quot;&gt;&lt;font style=&quot;font-size: 26px;&quot;&gt;&lt;b&gt;&lt;font style=&quot;font-size: 26px;&quot;&gt;rst&lt;br&gt;&lt;/font&gt;&lt;/b&gt;&lt;/font&gt;&lt;/font&gt;&lt;/b&gt;&lt;/font&gt;&lt;/div&gt;&lt;div style=&quot;font-size: 26px;&quot; align=&quot;left&quot;&gt;&lt;font style=&quot;font-size: 26px;&quot;&gt;&lt;b&gt;&lt;font style=&quot;font-size: 26px;&quot;&gt;&lt;font style=&quot;font-size: 26px;&quot;&gt;&lt;b&gt;&lt;font style=&quot;font-size: 26px;&quot;&gt;clk&lt;/font&gt;&lt;/b&gt;&lt;/font&gt;&lt;/font&gt;&lt;/b&gt;&lt;/font&gt;&lt;/div&gt;" style="text;html=1;strokeColor=none;fillColor=none;align=left;verticalAlign=middle;whiteSpace=wrap;rounded=0;" parent="1" vertex="1">
          <mxGeometry x="-714" y="369" width="48" height="58" as="geometry" />
        </mxCell>
        <mxCell id="k1cbnF_5yYTtlvTHfuMY-47" value="&lt;font size=&quot;1&quot;&gt;&lt;b style=&quot;font-size: 40px;&quot;&gt;MOZERPOL_DESIGN&lt;/b&gt;&lt;/font&gt;" style="text;html=1;strokeColor=none;fillColor=none;align=center;verticalAlign=middle;whiteSpace=wrap;rounded=0;fontColor=#000000;" parent="1" vertex="1">
          <mxGeometry x="1041" y="234" width="459" height="69" as="geometry" />
        </mxCell>
        <mxCell id="k1cbnF_5yYTtlvTHfuMY-50" value="&lt;div style=&quot;font-size: 26px;&quot; align=&quot;left&quot;&gt;&lt;font style=&quot;font-size: 26px;&quot;&gt;&lt;b&gt;&lt;font style=&quot;font-size: 26px;&quot;&gt;&lt;font style=&quot;font-size: 26px;&quot;&gt;&lt;b&gt;&lt;font style=&quot;font-size: 26px;&quot;&gt;gpio(7:0)&lt;/font&gt;&lt;/b&gt;&lt;/font&gt;&lt;/font&gt;&lt;/b&gt;&lt;/font&gt;&lt;/div&gt;" style="text;html=1;strokeColor=none;fillColor=none;align=left;verticalAlign=middle;whiteSpace=wrap;rounded=0;" parent="1" vertex="1">
          <mxGeometry x="3096" y="357" width="114" height="36" as="geometry" />
        </mxCell>
        <mxCell id="k1cbnF_5yYTtlvTHfuMY-51" value="" style="shape=curlyBracket;whiteSpace=wrap;html=1;rounded=1;flipH=1;labelPosition=right;verticalLabelPosition=middle;align=left;verticalAlign=middle;strokeWidth=3;" parent="1" vertex="1">
          <mxGeometry x="-668" y="363" width="20" height="72" as="geometry" />
        </mxCell>
        <mxCell id="k1cbnF_5yYTtlvTHfuMY-52" value="&lt;font style=&quot;font-size: 26px;&quot;&gt;mozerpol_design input ports&lt;/font&gt;" style="text;html=1;strokeColor=none;fillColor=none;align=center;verticalAlign=middle;whiteSpace=wrap;rounded=0;" parent="1" vertex="1">
          <mxGeometry x="-646" y="381" width="336" height="30" as="geometry" />
        </mxCell>
        <mxCell id="k1cbnF_5yYTtlvTHfuMY-53" value="" style="shape=curlyBracket;whiteSpace=wrap;html=1;rounded=1;labelPosition=left;verticalLabelPosition=middle;align=right;verticalAlign=middle;strokeWidth=3;" parent="1" vertex="1">
          <mxGeometry x="3075" y="356" width="20" height="48" as="geometry" />
        </mxCell>
        <mxCell id="k1cbnF_5yYTtlvTHfuMY-54" value="&lt;font style=&quot;font-size: 26px;&quot;&gt;mozerpol_design output port&lt;/font&gt;" style="text;html=1;strokeColor=none;fillColor=none;align=center;verticalAlign=middle;whiteSpace=wrap;rounded=0;" parent="1" vertex="1">
          <mxGeometry x="2727" y="362" width="345" height="30" as="geometry" />
        </mxCell>
        <mxCell id="GuCMF0NOM9EzWncVumZ_-4" value="" style="endArrow=classic;html=1;rounded=0;endSize=1;strokeWidth=2;strokeColor=#FFCC99;" parent="1" edge="1">
          <mxGeometry width="50" height="50" relative="1" as="geometry">
            <mxPoint x="834" y="1327" as="sourcePoint" />
            <mxPoint x="899" y="1327" as="targetPoint" />
          </mxGeometry>
        </mxCell>
        <mxCell id="GuCMF0NOM9EzWncVumZ_-6" value="" style="endArrow=none;html=1;rounded=0;strokeWidth=2;strokeColor=#FFCC99;" parent="1" edge="1">
          <mxGeometry width="50" height="50" relative="1" as="geometry">
            <mxPoint x="780" y="1649" as="sourcePoint" />
            <mxPoint x="834" y="1649" as="targetPoint" />
          </mxGeometry>
        </mxCell>
        <mxCell id="GuCMF0NOM9EzWncVumZ_-7" value="" style="endArrow=none;html=1;rounded=0;strokeWidth=2;strokeColor=#666600;" parent="1" edge="1">
          <mxGeometry width="50" height="50" relative="1" as="geometry">
            <mxPoint x="1100" y="1308" as="sourcePoint" />
            <mxPoint x="1236" y="1308" as="targetPoint" />
          </mxGeometry>
        </mxCell>
        <mxCell id="Fz1fnsxvgLmSLC5UEzrB-2" value="" style="endArrow=classic;html=1;rounded=0;strokeWidth=2;strokeColor=#00FFFF;endSize=1;" edge="1" parent="1">
          <mxGeometry width="50" height="50" relative="1" as="geometry">
            <mxPoint x="1593" y="759" as="sourcePoint" />
            <mxPoint x="1630" y="759" as="targetPoint" />
          </mxGeometry>
        </mxCell>
        <mxCell id="Fz1fnsxvgLmSLC5UEzrB-3" value="" style="endArrow=none;html=1;rounded=0;strokeWidth=2;strokeColor=#00FFFF;" edge="1" parent="1">
          <mxGeometry width="50" height="50" relative="1" as="geometry">
            <mxPoint x="1547" y="773" as="sourcePoint" />
            <mxPoint x="1593" y="773" as="targetPoint" />
          </mxGeometry>
        </mxCell>
        <mxCell id="Fz1fnsxvgLmSLC5UEzrB-4" value="" style="endArrow=none;html=1;rounded=0;strokeWidth=2;strokeColor=#00FFFF;" edge="1" parent="1">
          <mxGeometry width="50" height="50" relative="1" as="geometry">
            <mxPoint x="1593" y="774" as="sourcePoint" />
            <mxPoint x="1593" y="758" as="targetPoint" />
          </mxGeometry>
        </mxCell>
      </root>
    </mxGraphModel>
  </diagram>
</mxfile>
